<svg width="379" height="248" viewBox="0 0 379 248" fill="none" xmlns="http://www.w3.org/2000/svg">
<g style="mix-blend-mode:multiply" opacity="0.54">
<path d="M92.6324 240.871C123.866 240.871 149.185 236.907 149.185 232.016C149.185 227.125 123.866 223.16 92.6324 223.16C61.3992 223.16 36.0797 227.125 36.0797 232.016C36.0797 236.907 61.3992 240.871 92.6324 240.871Z" fill="#D6D0C5"/>
</g>
<g style="mix-blend-mode:multiply" opacity="0.54">
<path d="M308.353 234.967C339.586 234.967 364.905 231.003 364.905 226.112C364.905 221.221 339.586 217.256 308.353 217.256C277.119 217.256 251.8 221.221 251.8 226.112C251.8 231.003 277.119 234.967 308.353 234.967Z" fill="#D6D0C5"/>
</g>
<path d="M49.8489 191.676C46.0754 196.104 45.0886 203.087 45.2591 208.731C45.4296 214.376 49.1081 220.257 53.1438 224.475C49.9867 226.226 46.6362 228.181 45.2199 231.33C45.1396 231.466 45.0879 231.617 45.0681 231.774C45.0484 231.931 45.061 232.09 45.1051 232.242C45.3018 232.688 45.9214 232.793 46.4394 232.825C52.3805 233.199 58.3444 232.941 64.2313 232.058C65.6017 231.851 67.1491 230.379 67.5097 229.139C67.8704 227.899 67.6475 226.584 67.4737 225.305C66.5361 218.318 63.9396 212.001 70.3817 204.582C72.2406 202.44 71.3127 199.534 69.4374 197.337C67.5622 195.139 64.6313 193.965 61.7299 193.178C58.8285 192.391 52.5601 192.909 49.8489 191.676Z" fill="#94C93D"/>
<path d="M57.229 217.41C55.6095 222.425 56.3438 228.06 58.8682 232.691C60.6615 232.537 62.4515 232.334 64.2284 232.068C65.5988 231.861 67.1462 230.389 67.5069 229.149C67.8675 227.909 67.6444 226.594 67.4707 225.315C66.6117 218.925 64.3726 213.094 68.9231 206.472C63.8481 206.252 58.5731 213.248 57.229 217.41Z" fill="#7FAB35"/>
<path d="M101.842 198.685C111.264 206.039 116.152 217.633 120.66 228.706C121.483 230.73 123.83 231.048 126.013 231.117L135.603 231.422C136.957 231.464 138.379 231.491 139.583 230.864C140.786 230.238 141.635 228.716 141.051 227.496C140.468 226.276 138.825 225.98 137.58 225.361C134.554 223.852 133.645 220.018 133.242 216.659C132.587 211.411 132.295 206.071 131.092 200.915C129.888 195.759 127.689 190.659 123.833 187.018C119.978 183.378 114.257 181.443 109.205 183.046C104.153 184.65 100.376 193.588 101.842 198.685Z" fill="#94C93D"/>
<path d="M28.5888 124.851C28.5888 124.851 18.0977 130.476 14.5242 130.87C10.9507 131.263 0.866418 130.135 0.505792 131.916C0.145166 133.697 17.0618 152.52 29.7919 138.784L36.9487 124.969L28.5888 124.851Z" fill="black"/>
<path d="M32.87 119.964C34.3847 119.885 20.9794 111.452 1.86292 113.361C1.86292 113.361 7.26564 142.225 33.3946 127.924L32.87 119.964Z" fill="black"/>
<path d="M72.2833 80.2441C72.2833 80.2441 55.5273 70.1879 50.9408 67.7247C46.3543 65.2615 38.5877 63.4378 35.978 68.748C33.3684 74.0582 42.689 78.2598 40.2171 85.3837C37.7452 92.5077 72.2833 80.2441 72.2833 80.2441Z" fill="#94C93D"/>
<path d="M65.3007 76.0753C61.3339 75.4193 57.2783 75.8359 53.2983 76.3672C51.1346 76.6558 48.9217 76.9773 46.7875 76.5279C44.0074 75.9408 41.6633 74.0319 40.2012 71.6376C39.2406 70.0698 39.2176 67.846 38.857 65.9732C37.596 66.5217 36.575 67.5069 35.9818 68.748C33.3591 74.0581 42.6928 78.2597 40.2209 85.3837C37.7489 92.5077 72.2837 80.2441 72.2837 80.2441C72.2837 80.2441 69.1922 78.3877 65.3007 76.0753Z" fill="#7FAB35"/>
<path d="M43.3585 188.566C43.3585 188.566 35.4674 159.241 32.2119 148.102C28.9565 136.964 22.4652 116.448 21.9046 112.246C21.344 108.045 19.7014 98.3426 29.9137 91.9501C40.1259 85.5575 62.7569 74.2386 83.8699 74.1926C104.983 74.1467 105.875 80.8181 108.969 88.9523C112.064 97.0864 126.807 147.587 127.869 163.38C128.853 178.159 133.046 185.89 121.044 192.899C101.291 204.418 69.7333 207.865 57.9769 206.763C47.5549 205.779 43.3585 188.566 43.3585 188.566Z" fill="#94C93D"/>
<path d="M78.2335 74.465L115.863 195.638C117.666 194.772 119.404 193.86 121.056 192.896C133.058 185.897 128.875 178.166 127.882 163.377C126.82 147.584 112.077 97.0899 108.982 88.9491C105.887 80.8084 104.998 74.1338 83.8822 74.1895C82.0102 74.1961 80.1219 74.2944 78.2335 74.465Z" fill="#7FAB35"/>
<path d="M25.107 65.9306C28.9473 65.9306 32.0605 62.816 32.0605 58.974C32.0605 55.1319 28.9473 52.0173 25.107 52.0173C21.2666 52.0173 18.1534 55.1319 18.1534 58.974C18.1534 62.816 21.2666 65.9306 25.107 65.9306Z" fill="#94C93D"/>
<path d="M51.7803 120.613C72.2671 112.437 89.023 108.051 114.434 105.378C113.332 101.6 109.648 89.2869 109.153 87.9946C108.421 86.0693 107.09 84.1046 106.31 82.4187C102.429 80.8706 98.7699 80.8903 94.5604 81.133C81.8598 81.8644 69.4444 85.3674 57.6454 90.1265C51.1771 92.7504 44.7284 95.7647 37.7913 96.4765C29.7854 97.2997 40.0469 88.8966 43.0008 84.8885C39.3945 86.7351 32.5097 89.4804 30.0968 90.9892C19.8845 97.3817 21.1697 107.021 21.7271 111.223C22.2844 115.425 28.792 135.94 32.0344 147.079C32.1459 147.443 32.5458 128.285 51.7803 120.613Z" fill="#7FAB35"/>
<path d="M103.071 143.507C100.665 136.173 93.5339 137.331 89.4982 140.319C82.5644 145.452 73.7455 146.695 66.1855 145.35C61.2416 144.471 54.3046 146.18 55.1307 153.852C55.9569 161.524 67.4804 171.272 82.9545 167.185L83.053 166.998L83.2169 167.129C98.9992 164.466 105.477 150.838 103.071 143.507Z" fill="black"/>
<path d="M101.583 154.393C96.1928 152.619 87.682 150.628 79.8859 152.31C71.2964 154.163 65.015 160.162 61.8546 163.826C66.8575 167.434 74.2798 169.474 82.9479 167.185L83.0463 166.998L83.2103 167.129C92.6095 165.548 98.6844 160.097 101.583 154.393Z" fill="#F48B8C"/>
<path d="M101.583 154.393C99.2916 153.636 96.9562 153.02 94.5897 152.55C94.7047 153.471 94.9247 154.375 95.2454 155.246C85.597 152.888 87.4066 160.769 87.4066 160.769C81.6137 155.354 79.0926 162.563 79.0926 162.563C75.5749 155.446 70.4114 161.133 70.4114 161.133C70.6474 159.493 69.5426 158.303 68.5788 157.578C66.1126 159.397 63.8582 161.488 61.858 163.81C66.8609 167.418 74.2832 169.458 82.9513 167.168L83.0496 166.981L83.2135 167.113C92.6094 165.548 98.6844 160.097 101.583 154.393Z" fill="#DF6E74"/>
<path d="M97.1996 150.851C94.3146 153.101 96.9241 157.204 98.3699 159.074C100.601 156.617 102.215 153.663 103.078 150.457C101.426 149.706 99.2093 149.28 97.1996 150.851Z" fill="white"/>
<path d="M74.713 160.369C71.1494 160.084 69.3527 165.128 68.8282 166.929C69.2642 165.128 70.1691 159.923 66.6153 158.073C63.6876 156.555 61.2583 159.953 59.9928 162.314C64.3367 166.283 71.2706 169.067 79.6141 167.867C79.3355 165.942 78.2504 160.654 74.713 160.369Z" fill="white"/>
<path d="M90.1088 156.302C87.45 157.68 88.8859 162.977 89.653 165.259C92.919 163.889 95.8485 161.825 98.2392 159.211C96.4852 157.742 92.6725 154.977 90.1088 156.302Z" fill="white"/>
<path d="M82.9747 159.992C79.8471 160.533 79.6439 165.896 79.6734 167.864C80.7777 167.707 81.8722 167.488 82.9518 167.208L83.0501 167.021L83.214 167.152C85.3762 166.793 87.4896 166.184 89.5118 165.338C88.4529 163.409 85.8826 159.49 82.9747 159.992Z" fill="white"/>
<path d="M114.433 105.378C114.433 105.378 76.4759 102.839 26.4932 130.007L20.8642 114.355C20.568 113.541 20.5505 112.651 20.8146 111.826C21.0786 111.001 21.6092 110.287 22.323 109.796C30.6731 104.06 60.1723 86.3381 108.401 84.2587C108.401 84.2619 111.758 95.0397 114.433 105.378Z" fill="black"/>
<path d="M55.9011 140.788C56.8499 140.788 57.619 140.019 57.619 139.069C57.619 138.12 56.8499 137.351 55.9011 137.351C54.9524 137.351 54.1832 138.12 54.1832 139.069C54.1832 140.019 54.9524 140.788 55.9011 140.788Z" fill="black"/>
<path d="M94.5959 131.575C95.5447 131.575 96.3138 130.805 96.3138 129.856C96.3138 128.907 95.5447 128.137 94.5959 128.137C93.6472 128.137 92.8781 128.907 92.8781 129.856C92.8781 130.805 93.6472 131.575 94.5959 131.575Z" fill="black"/>
<path d="M126.544 231.12L135.602 231.409C136.956 231.451 138.379 231.478 139.582 230.851C140.785 230.225 141.635 228.703 141.051 227.483C140.467 226.263 138.825 225.967 137.579 225.348C134.553 223.839 133.645 220.005 133.242 216.646C132.586 211.398 132.294 206.058 131.091 200.902C129.888 195.746 127.688 190.646 123.833 187.005C120.699 184.053 116.328 182.213 112.089 182.492C112.139 183.276 121.757 215.259 126.544 231.12Z" fill="#7FAB35"/>
<path d="M110.313 165.925C112.936 171.554 114.817 177.077 115.601 183.243C107.566 189.129 97.6447 191.844 87.7344 190.869C88.0622 186.212 86.2756 182.122 83.0791 178.733C80.4269 175.916 76.8828 174.079 74.1355 171.35C85.0002 169.054 98.0221 165.043 105.415 156.751C108.316 159.657 108.575 162.186 110.313 165.925Z" fill="#7FAB35"/>
<path d="M200.559 5.50438L87.0825 40.4736C81.0832 42.3223 77.7179 48.6866 79.5658 54.6886L135.636 236.805C137.484 242.807 143.845 246.174 149.845 244.325L263.321 209.356C269.32 207.507 272.686 201.143 270.838 195.141L214.767 13.0245C212.92 7.02245 206.558 3.65563 200.559 5.50438Z" fill="#1C2B63"/>
<path d="M207.564 3.34745L94.0873 38.3167C88.0881 40.1655 84.7228 46.5298 86.5707 52.5318L142.641 234.648C144.489 240.65 150.85 244.017 156.849 242.168L270.326 207.199C276.325 205.35 279.69 198.986 277.843 192.984L221.772 10.8676C219.924 4.86564 213.563 1.4987 207.564 3.34745Z" fill="#2A3A87"/>
<path d="M211.312 7.5382L92.29 44.2164C90.4592 44.7806 89.4322 46.7228 89.9962 48.5543L143.263 221.564C143.827 223.396 145.768 224.424 147.599 223.859L266.621 187.181C268.452 186.617 269.479 184.675 268.915 182.843L215.648 9.83309C215.084 8.0015 213.143 6.97403 211.312 7.5382Z" fill="#B2EEFF"/>
<path d="M211.311 7.51521L92.3044 44.1945C91.8688 44.3285 91.464 44.5471 91.1129 44.8378C90.7618 45.1284 90.4714 45.4854 90.2582 45.8884C90.0451 46.2914 89.9135 46.7324 89.8709 47.1863C89.8282 47.6402 89.8752 48.0981 90.0095 48.5338L90.1014 48.8257L215.75 10.103L215.661 9.81115C215.527 9.37391 215.309 8.96744 215.017 8.61513C214.726 8.26283 214.367 7.9716 213.963 7.75824C213.559 7.54488 213.116 7.41359 212.661 7.37187C212.206 7.33016 211.747 7.37888 211.311 7.51521Z" fill="#8BDEF2"/>
<path d="M209.852 212.181C232.224 205.419 249.582 197.36 248.621 194.179C247.661 190.998 228.746 193.901 206.374 200.663C184.002 207.424 166.644 215.484 167.604 218.664C168.565 221.845 187.479 218.942 209.852 212.181Z" fill="#95D9E8"/>
<path d="M124.46 106.565C124.387 106.566 124.316 106.548 124.253 106.513L113.588 100.871L119.231 90.2019C119.258 90.1505 119.295 90.1048 119.339 90.0677C119.384 90.0305 119.436 90.0025 119.491 89.9853C119.547 89.968 119.605 89.9619 119.663 89.9673C119.721 89.9727 119.777 89.9894 119.829 90.0166C119.88 90.0437 119.926 90.0807 119.963 90.1255C120 90.1702 120.028 90.2219 120.045 90.2775C120.063 90.3331 120.069 90.3915 120.063 90.4495C120.058 90.5074 120.041 90.5637 120.014 90.6152L114.788 100.501L124.669 105.729C124.758 105.775 124.829 105.849 124.87 105.94C124.911 106.031 124.92 106.134 124.896 106.23C124.872 106.327 124.815 106.413 124.736 106.474C124.657 106.535 124.559 106.567 124.46 106.565V106.565Z" fill="white"/>
<path d="M145.317 174.306C145.244 174.304 145.172 174.286 145.107 174.253L134.442 168.608L140.084 157.939C140.109 157.883 140.146 157.834 140.191 157.793C140.236 157.752 140.289 157.721 140.346 157.702C140.404 157.682 140.465 157.674 140.525 157.679C140.586 157.684 140.645 157.701 140.698 157.73C140.752 157.758 140.799 157.797 140.837 157.845C140.875 157.892 140.903 157.947 140.92 158.005C140.936 158.064 140.94 158.125 140.931 158.185C140.923 158.246 140.902 158.303 140.871 158.355L135.645 168.238L145.523 173.466C145.627 173.521 145.705 173.615 145.74 173.728C145.775 173.84 145.764 173.962 145.71 174.066C145.672 174.138 145.615 174.198 145.546 174.24C145.477 174.282 145.397 174.305 145.317 174.306V174.306Z" fill="white"/>
<path d="M219.121 77.3939C219.048 77.394 218.977 77.3759 218.914 77.3414C218.862 77.3141 218.817 77.277 218.78 77.2321C218.742 77.1871 218.715 77.1352 218.697 77.0794C218.68 77.0237 218.675 76.9651 218.68 76.907C218.686 76.849 218.703 76.7926 218.73 76.7412L223.956 66.8588L214.075 61.6109C214.024 61.5836 213.978 61.5463 213.941 61.5014C213.904 61.4564 213.876 61.4046 213.859 61.3488C213.842 61.2931 213.836 61.2346 213.842 61.1766C213.847 61.1186 213.864 61.0622 213.891 61.0107C213.919 60.9593 213.956 60.9136 214.001 60.8765C214.046 60.8395 214.098 60.8116 214.153 60.7945C214.209 60.7775 214.268 60.7716 214.326 60.7772C214.384 60.7827 214.44 60.7997 214.491 60.8271L225.156 66.4718L219.514 77.1413C219.478 77.216 219.423 77.2792 219.353 77.3238C219.284 77.3685 219.203 77.3927 219.121 77.3939Z" fill="white"/>
<path d="M133.049 140.329C132.977 140.329 132.906 140.311 132.843 140.276L122.178 134.632L127.82 123.962C127.875 123.858 127.97 123.78 128.082 123.746C128.138 123.729 128.196 123.723 128.254 123.729C128.312 123.734 128.369 123.751 128.42 123.778C128.471 123.806 128.517 123.843 128.554 123.888C128.591 123.933 128.619 123.985 128.636 124.041C128.653 124.096 128.659 124.155 128.653 124.213C128.648 124.271 128.631 124.327 128.604 124.379L123.378 134.261L133.259 139.489C133.347 139.536 133.416 139.611 133.457 139.702C133.497 139.793 133.506 139.895 133.482 139.991C133.458 140.088 133.402 140.173 133.324 140.234C133.245 140.296 133.149 140.329 133.049 140.329V140.329Z" fill="white"/>
<path d="M227.713 111.154C227.64 111.154 227.568 111.137 227.503 111.105C227.451 111.078 227.406 111.04 227.369 110.995C227.331 110.951 227.304 110.899 227.286 110.843C227.269 110.787 227.264 110.729 227.269 110.67C227.275 110.612 227.292 110.556 227.319 110.505L232.545 100.619L222.667 95.3908C222.61 95.3667 222.559 95.3312 222.517 95.2863C222.475 95.2415 222.442 95.1883 222.421 95.1302C222.4 95.0721 222.392 95.0104 222.396 94.9488C222.401 94.8873 222.418 94.8273 222.446 94.7726C222.475 94.718 222.515 94.67 222.563 94.6315C222.611 94.593 222.667 94.5649 222.726 94.549C222.786 94.5331 222.848 94.5297 222.909 94.5391C222.97 94.5485 223.028 94.5705 223.08 94.6036L233.745 100.252L228.103 110.921C228.065 110.992 228.009 111.051 227.94 111.092C227.871 111.133 227.793 111.154 227.713 111.154V111.154Z" fill="white"/>
<path d="M239.977 145.131C239.905 145.131 239.834 145.113 239.771 145.078C239.719 145.051 239.673 145.014 239.636 144.969C239.598 144.925 239.57 144.873 239.552 144.817C239.535 144.761 239.529 144.703 239.534 144.644C239.54 144.586 239.557 144.53 239.584 144.478L244.813 134.596L234.932 129.367C234.835 129.308 234.764 129.214 234.733 129.105C234.703 128.995 234.716 128.878 234.769 128.777C234.822 128.677 234.912 128.6 235.02 128.564C235.127 128.527 235.245 128.533 235.348 128.58L246.013 134.225L240.371 144.895C240.333 144.966 240.276 145.026 240.207 145.068C240.138 145.109 240.058 145.131 239.977 145.131V145.131Z" fill="white"/>
<path d="M241.438 201.917L175.642 222.193C174.294 222.609 173.538 224.039 173.953 225.387C174.368 226.736 175.798 227.492 177.146 227.077L242.942 206.801C244.29 206.386 245.046 204.956 244.631 203.607C244.216 202.258 242.786 201.502 241.438 201.917Z" fill="#1C2B63"/>
<path d="M261.57 134.691C254.753 131.545 249.115 126.31 245.473 119.744C244.305 117.532 243.255 115.259 242.329 112.935C239.607 115.129 236.788 116.373 234.067 118.57C235.932 134.861 247.807 149.782 262.989 155.961C262.832 149.47 261.727 141.178 261.57 134.691Z" fill="#2C6698"/>
<path d="M262.989 155.961C262.832 149.47 261.727 141.178 261.57 134.687C259.115 133.558 256.799 132.147 254.669 130.483C251.505 134.441 247.24 137.426 242.824 140.112C244.88 142.884 247.221 145.433 249.807 147.719C251.058 147.756 252.308 147.612 253.518 147.289C253.481 148.395 253.444 149.501 253.407 150.605C256.374 152.769 259.592 154.567 262.989 155.961V155.961Z" fill="#285987"/>
<path d="M288.393 179.76C284.404 191.993 282.49 204.807 282.731 217.673C279.908 219.493 276.263 222.068 274.165 224.692C274.322 224.692 273.663 226.223 273.821 226.223H295.215C297.002 212.323 302.011 199.193 308.454 186.746C307.47 183.171 302.225 179.134 298.592 178.481C294.96 177.828 291.321 177.484 288.393 179.76Z" fill="#2C6698"/>
<path d="M298.582 178.491C294.933 177.835 291.321 177.484 288.393 179.76C286.35 186.027 284.849 192.457 283.905 198.98C287.229 198.046 290.096 195.928 291.966 193.024C293.714 197.183 298.067 200.082 302.457 199.699C304.247 195.303 306.267 190.99 308.457 186.756C307.454 183.181 302.231 179.143 298.582 178.491Z" fill="#285987"/>
<path d="M335.179 179.76C339.168 191.993 341.082 204.807 340.84 217.673C343.663 219.493 347.309 222.068 349.407 224.692C349.25 224.692 349.909 226.223 349.751 226.223H328.366C326.579 212.323 321.57 199.193 315.128 186.746C316.111 183.171 321.34 179.134 324.989 178.481C328.638 177.828 332.261 177.484 335.179 179.76Z" fill="#2C6698"/>
<path d="M324.991 178.491C328.64 177.835 332.252 177.484 335.18 179.76C337.224 186.026 338.726 192.457 339.668 198.98C336.344 198.046 333.477 195.928 331.607 193.024C329.859 197.183 325.505 200.082 321.116 199.699C319.326 195.303 317.306 190.99 315.116 186.756C316.119 183.181 321.342 179.143 324.991 178.491Z" fill="#285987"/>
<path d="M290.383 83.2158C290.383 83.2158 262.189 91.35 262.92 126.317C262.92 126.317 256.484 138.892 246.698 141.733C246.698 141.733 251.616 146.121 256.432 145.669C256.432 145.669 268.398 173.151 277.184 178.041C277.184 178.041 277.712 185.447 275.873 189.957C275.873 189.957 285.38 193.218 290.648 188.553C290.648 188.553 322.928 200.233 347.076 178.691C347.076 178.691 353.466 181.899 357.394 179.445C357.394 179.445 353.558 173.738 354.355 169.327C354.355 169.327 362.318 160.074 363.315 143.156C364.311 126.238 355.676 106.28 350.807 97.1686C343.218 82.9731 317.656 78.4731 304.352 80.769C304.352 80.769 288.944 70.0896 285.832 75.5867C285.845 75.5769 282.875 78.988 290.383 83.2158Z" fill="#52B9CA"/>
<path d="M290.764 182.295C300.881 188.445 313.851 180.797 313.851 180.797L311.444 188.317L319.611 183.027L317.627 187.724C331.577 186.74 340.655 170.97 340.655 170.97C343.606 174.506 349.999 173.899 349.999 173.899C347.212 171.386 346.022 163.869 346.022 163.869C357.608 159.231 361.388 142.517 362.611 131.001C363.28 135.009 363.521 139.077 363.328 143.137C362.345 160.054 354.369 169.307 354.369 169.307C353.572 173.718 357.408 179.425 357.408 179.425C353.474 181.879 347.091 178.671 347.091 178.671C322.942 200.214 290.662 188.534 290.662 188.534C285.745 192.873 277.198 190.354 276.031 189.984C281.193 187.935 286.13 185.358 290.764 182.295Z" fill="#499EBC"/>
<path d="M247.023 141.988C251.193 141.974 255.354 141.573 259.451 140.791C261.641 151.087 276.171 167.26 276.171 167.26C277.581 174.804 277.194 178.035 277.194 178.035C268.408 173.144 256.441 145.662 256.441 145.662C252.311 146.052 248.131 142.907 247.023 141.988Z" fill="#499EBC"/>
<path d="M357.915 113.256C357.915 113.256 362.61 131.001 376.274 129.702C376.274 129.702 364.892 147.512 347.201 144.334L357.915 113.256Z" fill="#52B9CA"/>
<path d="M347.194 144.334L349.696 137.078C368.124 138.148 376.251 129.702 376.251 129.702C376.251 129.702 364.885 147.512 347.194 144.334Z" fill="#499EBC"/>
<path d="M300.616 120.387C309.599 117.345 314.416 107.593 311.376 98.6057C308.335 89.6182 298.588 84.7985 289.604 87.8406C280.621 90.8827 275.803 100.635 278.844 109.622C281.885 118.609 291.632 123.429 300.616 120.387Z" fill="#499EBC"/>
<path d="M315.793 114.574C322.499 107.864 322.499 96.9865 315.792 90.2772C309.086 83.5679 298.213 83.5679 291.507 90.2772C284.801 96.9865 284.801 107.864 291.507 114.574C298.213 121.283 309.086 121.283 315.793 114.574Z" fill="#52B9CA"/>
<path d="M304.365 80.7592C314.17 79.0602 330.621 81.0872 341.64 87.9389C342.296 92.5046 343.116 99.1234 342.667 101.984C342.667 101.984 313.856 102.876 304.365 80.7592Z" fill="#499EBC"/>
<path d="M313.68 109.968C315.81 100.544 309.9 91.1768 300.48 89.046C291.06 86.9152 281.697 92.8278 279.567 102.252C277.438 111.677 283.347 121.044 292.768 123.175C302.188 125.305 311.551 119.393 313.68 109.968Z" fill="white"/>
<path d="M291.52 105.309C292.138 103.688 292.262 101.919 291.876 100.228C291.489 98.5358 290.61 96.9965 289.349 95.8046C288.089 94.6127 286.503 93.8216 284.793 93.5314C283.083 93.2412 281.325 93.4648 279.742 94.1742C278.158 94.8835 276.821 96.0466 275.899 97.5164C274.977 98.9861 274.51 100.696 274.56 102.431C274.609 104.166 275.172 105.847 276.176 107.262C277.181 108.677 278.582 109.762 280.203 110.38C282.375 111.209 284.788 111.14 286.911 110.189C289.033 109.238 290.691 107.483 291.52 105.309Z" fill="#1E74BB"/>
<path d="M289.87 104.68C290.363 103.385 290.462 101.973 290.153 100.622C289.844 99.2715 289.142 98.0427 288.135 97.0912C287.128 96.1398 285.862 95.5084 284.497 95.2769C283.131 95.0453 281.728 95.2241 280.464 95.7905C279.2 96.357 278.132 97.2857 277.396 98.4592C276.659 99.6327 276.287 100.998 276.327 102.383C276.366 103.768 276.815 105.111 277.617 106.24C278.419 107.37 279.537 108.237 280.831 108.73C281.691 109.059 282.606 109.214 283.526 109.188C284.445 109.162 285.35 108.955 286.19 108.579C287.029 108.203 287.786 107.665 288.418 106.996C289.049 106.327 289.543 105.54 289.87 104.68V104.68Z" fill="#231E20"/>
<path d="M291.333 111.395C292.354 109.53 291.67 107.19 289.806 106.168C287.941 105.147 285.602 105.832 284.581 107.697C283.561 109.562 284.245 111.902 286.109 112.924C287.974 113.945 290.313 113.261 291.333 111.395Z" fill="white"/>
<path d="M302.562 83.1632C312.79 95.1645 332.349 95.4334 338.204 95.2235C338.419 95.2168 338.63 95.1637 338.823 95.0677C339.015 94.9717 339.184 94.8351 339.319 94.6675C339.453 94.4998 339.55 94.305 339.602 94.0963C339.654 93.8877 339.661 93.6703 339.621 93.4589C338.916 89.5788 336.877 79.9227 333.274 75.0914C328.7 68.9416 324.56 70.1716 320.629 71.5098C316.698 72.848 306.827 78.8994 306.827 78.8994C306.827 78.8994 310.105 74.337 316.17 68.3577C322.235 62.3785 314.751 60.158 310.82 62.2276C306.889 64.2972 300.742 69.5713 301.64 79.493L302.562 83.1632Z" fill="#52B9CA"/>
<path d="M310.68 77.2921C310.794 77.6675 311.023 77.9976 311.335 78.2359C311.647 78.4742 312.025 78.6087 312.417 78.6205C317.289 78.7583 317.991 83.8683 318.017 84.075C318.048 84.3188 318.126 84.5541 318.248 84.7675C318.37 84.981 318.532 85.1684 318.726 85.319C318.92 85.4696 319.142 85.5805 319.379 85.6453C319.616 85.7102 319.863 85.7277 320.107 85.6969C320.351 85.6661 320.586 85.5876 320.799 85.4659C321.013 85.3441 321.2 85.1815 321.35 84.9873C321.501 84.7932 321.612 84.5713 321.677 84.3342C321.741 84.0972 321.759 83.8497 321.728 83.606C321.354 80.6704 318.951 75.0782 312.526 74.8781C312.229 74.8695 311.935 74.9317 311.667 75.0594C311.399 75.187 311.165 75.3765 310.985 75.6123C310.805 75.8481 310.683 76.1233 310.63 76.4154C310.577 76.7074 310.594 77.008 310.68 77.2921V77.2921Z" fill="#306999"/>
<path d="M316.234 120.236C316.234 120.236 307.054 131.758 294.304 131.539C294.304 131.539 301.402 143.927 310.791 139.479C318.82 135.675 319.82 128.196 316.234 120.236Z" fill="#231F1F"/>
<path d="M317.875 131.355C317.082 134.723 314.823 137.567 310.791 139.479C307.184 141.185 303.929 140.411 301.283 138.823C302.326 137.206 304.191 135.068 307.467 133.198C310.614 131.384 314.297 130.731 317.875 131.355V131.355Z" fill="#E894AA"/>
<path d="M315.031 129.912C315.483 129.256 317.05 129.731 318.099 130.145C317.968 131.141 317.705 132.116 317.319 133.044C316.237 132.159 314.559 130.61 315.031 129.912Z" fill="white"/>
<path d="M303.445 137.055C304.212 137.292 304.231 138.958 304.153 140.083C303.282 139.833 302.445 139.481 301.658 139.033C302.176 137.938 302.851 136.875 303.445 137.055Z" fill="white"/>
<path d="M315.031 129.912C315.483 129.256 317.05 129.731 318.099 130.145C317.968 131.141 317.705 132.116 317.319 133.044C316.237 132.159 314.559 130.61 315.031 129.912Z" fill="white"/>
<path d="M303.445 137.055C304.212 137.292 304.231 138.958 304.153 140.083C303.282 139.833 302.445 139.481 301.658 139.033C302.176 137.938 302.851 136.875 303.445 137.055Z" fill="white"/>
<path d="M355.607 136.445C364.131 144.878 371.153 155.357 372.209 167.306C375.228 169.7 377.762 173.538 378.5 177.32C377.041 177.556 375.861 177.671 374.753 176.693C375.119 177.16 375.332 177.729 375.364 178.322C375.395 178.914 375.244 179.502 374.93 180.006C373.618 180.029 372.664 179.983 371.894 178.92C372.058 179.205 372.162 179.521 372.2 179.848C372.238 180.175 372.209 180.506 372.114 180.822C372.019 181.137 371.86 181.429 371.648 181.681C371.436 181.933 371.175 182.138 370.881 182.285C369.431 181.302 368.184 180.049 367.206 178.596C366.298 179.832 364.478 179.907 363.098 179.222C363.055 177.53 363.885 176.414 364.409 174.807C362.375 169.732 359.313 165.133 355.416 161.3C351.519 157.466 346.871 154.48 341.765 152.53C345.303 146.456 350.522 141.293 355.607 136.445Z" fill="#2C6698"/>
<path d="M355.607 136.445C350.794 141.037 345.867 145.901 342.359 151.556C342.567 152.07 342.808 152.571 343.08 153.055C345.89 154.235 348.55 155.742 351.008 157.545C355.555 156.43 360.063 154.331 362.934 150.631C363.694 149.644 364.303 148.551 364.744 147.387C362.076 143.44 359.014 139.774 355.607 136.445V136.445Z" fill="#285987"/>
<path d="M338.021 150.014C337.739 152.369 338.382 154.911 340.087 156.574C341.792 158.237 344.631 158.732 346.614 157.437C348.597 156.141 349.178 152.976 347.519 151.284C349.207 153.101 352.017 153.55 354.404 152.901C358.885 151.684 361.921 146.997 361.944 142.346C361.967 137.695 359.321 133.307 355.679 130.43C352.755 128.134 348.988 126.648 345.306 127.212C341.775 127.757 338.785 130.059 336.126 132.46" fill="#52B9CA"/>
<path d="M242.122 117.904C243.155 117.576 243.964 116.763 244.571 115.867C245.554 114.414 246.092 112.564 245.587 110.888C245.082 109.212 243.312 107.884 241.604 108.264C241.014 105.64 238.394 103.594 235.703 103.508C235.862 105.158 236.281 106.772 236.945 108.29C236.478 108.051 235.945 107.969 235.427 108.056C234.909 108.143 234.433 108.396 234.07 108.776C233.729 109.172 233.526 109.669 233.492 110.191C233.458 110.712 233.594 111.231 233.88 111.669C232.896 111.669 231.647 112.4 231.362 113.342C231.228 113.816 231.244 114.32 231.409 114.785C231.573 115.25 231.877 115.652 232.28 115.936C232.28 117.819 232.86 119.609 234.49 120.547C235.657 121.203 237.112 121.204 238.404 120.78C239.696 120.357 240.837 118.311 242.122 117.904Z" fill="#2C6698"/>
<path d="M241.65 115.339C241.531 114.826 241.533 114.292 241.655 113.78C241.777 113.268 242.017 112.791 242.354 112.387C241.771 112.484 241.229 112.749 240.794 113.15C240.359 113.551 240.05 114.07 239.906 114.644C239.329 114.238 238.931 113.627 238.792 112.936C238.654 112.245 238.786 111.527 239.161 110.931C238.806 111.333 238.547 111.811 238.404 112.328C238.261 112.845 238.237 113.388 238.335 113.916C237.905 114.03 237.454 114.037 237.02 113.936C236.587 113.834 236.185 113.628 235.85 113.335L236.834 115.959C236.862 116.012 236.879 116.071 236.883 116.132C236.888 116.192 236.88 116.253 236.86 116.31C236.799 116.399 236.706 116.46 236.601 116.48C236.052 116.655 235.473 116.716 234.9 116.66C234.327 116.603 233.771 116.431 233.267 116.152C234.188 117.625 235.486 118.029 237.217 117.884C237.404 117.884 237.586 117.825 237.739 117.717C237.826 117.615 237.891 117.495 237.929 117.365C237.967 117.236 237.977 117.1 237.958 116.966C237.952 116.388 237.899 115.811 237.801 115.241C238.039 115.571 238.363 115.83 238.738 115.989C239.122 116.11 239.633 115.943 239.722 115.549C239.964 115.859 240.3 116.083 240.679 116.185C241.066 116.218 241.741 115.706 241.65 115.339Z" fill="#285987"/>
<path d="M74.4006 171.616C80.1709 172.315 86.0235 171.804 91.5856 170.116C97.1476 168.428 102.297 165.598 106.706 161.809C107.254 159.018 109.899 156.958 112.588 157.89C112.918 158.412 113.092 159.018 113.088 159.636C113.084 160.254 112.902 160.858 112.565 161.376C113.568 160.96 114.656 161.766 115.142 162.741C115.37 163.236 115.411 163.798 115.257 164.322C115.102 164.846 114.763 165.295 114.302 165.588C114.594 164.761 116.01 165.433 116.548 166.126C117.086 166.818 116.981 167.828 116.63 168.631C116.226 169.558 115.549 170.338 114.689 170.868C112.496 176.116 108.017 180.6 103.306 183.811C98.5953 187.022 93.2253 189.147 87.7602 190.761" fill="#94C93D"/>
<path d="M310.339 57.7308C310.145 58.4064 309.388 58.3474 309.257 57.6455C308.601 54.1917 307.392 50.9085 305.536 48.2649C303.618 45.5393 300.979 43.5583 298.16 42.9646C297.625 42.8531 297.504 41.9609 297.976 41.6296C303.494 37.7856 307.483 30.4779 309.191 22.675C309.342 21.9797 310.116 21.9731 310.277 22.675C311.149 26.46 312.244 30.2811 314.007 33.4266C315.771 36.572 318.164 39.2713 320.954 40.7703C321.433 41.0294 321.41 41.8986 320.918 42.1085C319.346 42.8281 317.973 43.9228 316.922 45.2966C314.27 48.6355 311.676 53.1028 310.339 57.7308Z" fill="white"/>
<path d="M359.367 79.5881C359.253 79.9752 358.82 79.9391 358.744 79.539C358.418 77.6149 357.691 75.781 356.61 74.1566C355.509 72.5921 353.987 71.4572 352.378 71.1161C352.305 71.0859 352.243 71.0374 352.195 70.9754C352.147 70.9134 352.116 70.8399 352.106 70.7624C352.095 70.6849 352.105 70.6059 352.134 70.5333C352.164 70.4607 352.211 70.3971 352.273 70.3486C355.436 68.1445 357.728 63.9528 358.708 59.4724C358.731 59.408 358.773 59.352 358.828 59.3125C358.884 59.2729 358.95 59.2517 359.018 59.2517C359.086 59.2517 359.153 59.2729 359.208 59.3125C359.264 59.352 359.306 59.408 359.328 59.4724C359.83 61.6437 360.456 63.838 361.469 65.6419C362.482 67.4459 363.855 68.994 365.455 69.8567C365.519 69.8995 365.57 69.9576 365.605 70.0256C365.64 70.0936 365.657 70.1693 365.655 70.2457C365.653 70.3222 365.632 70.3969 365.594 70.463C365.555 70.5291 365.501 70.5845 365.436 70.6241C364.532 71.0352 363.744 71.6627 363.141 72.451C361.445 74.571 360.164 76.9925 359.367 79.5881V79.5881Z" fill="white"/>
<path d="M268.047 89.7165C267.926 90.1494 267.444 90.1101 267.359 89.664C266.996 87.5263 266.187 85.4889 264.985 83.6848C263.766 81.9464 262.081 80.6836 260.284 80.3064C259.956 80.2343 259.868 79.6505 260.169 79.4537C263.684 77.0036 266.231 72.3494 267.316 67.3705C267.324 67.2845 267.365 67.2048 267.428 67.1467C267.492 67.0887 267.576 67.0565 267.662 67.0565C267.748 67.0565 267.832 67.0887 267.896 67.1467C267.96 67.2048 267.999 67.2845 268.008 67.3705C268.565 69.7845 269.257 72.2214 270.385 74.2255C271.512 76.2295 273.037 77.9482 274.814 78.9059C274.884 78.9539 274.941 79.0187 274.979 79.0943C275.017 79.1698 275.036 79.2538 275.034 79.3386C275.032 79.4233 275.008 79.5061 274.966 79.5795C274.923 79.6529 274.863 79.7145 274.791 79.7587C273.788 80.2176 272.913 80.9159 272.244 81.7923C270.361 84.1471 268.937 86.8352 268.047 89.7165V89.7165Z" fill="#FFC54C"/>
<path d="M218.126 118.475C226.812 123.54 233.134 131.845 235.705 141.568C236.689 145.37 237.017 149.572 235.279 153.088C234.787 154.072 234.046 155.055 232.984 155.334C231.211 155.797 229.601 154.176 228.65 152.609C226.742 149.457 225.667 145.875 224.034 142.569C222.401 139.263 220.002 136.078 216.536 134.815C214.359 131.535 213.799 128.255 213.959 124.319C214.012 123.034 214.176 121.695 214.825 120.597C215.474 119.498 217.012 117.832 218.126 118.475Z" fill="#3A74FF"/>
<path d="M216.534 134.815C214.357 131.535 213.796 128.256 213.957 124.32C214.009 123.034 214.173 121.696 214.822 120.597C215.471 119.498 217.019 117.822 218.134 118.465C221.575 120.457 224.674 122.988 227.313 125.963C229.723 134.37 230.022 143.242 228.182 151.792C226.543 148.84 225.527 145.587 224.032 142.559C222.396 139.263 219.993 136.078 216.534 134.815Z" fill="#1E69E0"/>
<path d="M150.798 139.224C146.467 148.3 145.913 158.724 149.257 168.208C150.568 171.908 152.663 175.572 156.086 177.494C157.053 178.035 158.213 178.428 159.256 178.054C160.984 177.438 161.4 175.191 161.305 173.361C161.112 169.678 159.994 166.112 159.476 162.462C158.958 158.811 159.148 154.823 161.312 151.835C161.266 147.899 159.895 144.878 157.545 141.713C156.777 140.68 155.905 139.673 154.735 139.122C153.565 138.571 151.358 138.063 150.798 139.224Z" fill="#3A74FF"/>
<path d="M161.312 151.835C161.266 147.899 159.896 144.878 157.545 141.713C156.778 140.68 155.906 139.673 154.736 139.122C153.565 138.571 151.359 138.062 150.801 139.224C149.079 142.808 147.941 146.644 147.431 150.588C150.168 158.894 154.91 166.395 161.237 172.429C160.925 169.077 159.945 165.807 159.479 162.462C158.965 158.811 159.161 154.823 161.312 151.835Z" fill="#1E69E0"/>
<path d="M218.5 120.669C216.268 115.093 207.537 110.632 201.692 112.049C196.85 113.224 193.42 117.455 190.706 121.637C188.572 124.916 186.614 128.406 185.552 132.165C182.552 129.64 178.966 127.852 175.333 126.33C170.744 124.402 165.524 122.834 160.859 124.592C155.23 126.711 150.516 135.304 151.814 141.178C154.747 154.439 160.08 167.052 167.55 178.392C171.268 184.034 171.239 191.551 175.025 197.143C177.048 200.135 179.864 202.88 183.415 203.516C184.571 203.761 185.774 203.655 186.87 203.211C188.578 202.447 189.647 200.646 190.001 198.806C190.355 196.966 190.089 195.071 189.788 193.23C189.388 190.803 188.914 188.39 188.365 185.992C187.709 183.118 186.982 180.147 187.591 177.264C189.781 166.899 204.938 164.544 209.229 170.632C210.956 172.999 212.387 175.569 213.491 178.284C214.389 180.573 215.355 182.835 216.389 185.07C217.176 186.769 218.028 188.481 219.34 189.806C220.651 191.131 222.562 192.014 224.405 191.682C225.559 191.433 226.613 190.844 227.431 189.99C230.008 187.464 230.791 183.61 230.785 180.003C230.768 173.246 226.523 167.047 226.418 160.29C226.215 146.711 223.532 133.283 218.5 120.669Z" fill="#61B5FF"/>
<path d="M182.232 163.59C186.72 164.807 191.526 164.341 196.001 163.059C200.148 161.871 204.292 159.825 206.676 156.23C208.344 153.717 209.006 150.654 209.078 147.633C209.137 145.239 208.823 142.769 207.643 140.686C206.003 137.803 202.873 135.993 199.62 135.366C196.368 134.74 193.001 135.169 189.785 135.914C184.72 137.078 174.599 140.535 172.049 145.688C168.144 153.534 174.868 161.586 182.232 163.59Z" fill="#85CBFF"/>
<g style="mix-blend-mode:multiply" opacity="0.32">
<path d="M205.899 116.51C202.17 116.11 198.41 116.084 194.677 116.435C193.195 118.044 191.863 119.786 190.697 121.637C188.562 124.917 186.605 128.406 185.543 132.165C182.543 129.64 178.957 127.852 175.324 126.33C171.547 124.746 167.351 123.405 163.384 123.956C159.039 126.763 155.289 130.4 152.349 134.658C151.615 136.905 151.366 139.197 151.805 141.178C153.11 147.099 154.9 152.902 157.155 158.529C158.604 156.366 159.871 154.088 160.945 151.717C163.735 155.981 166.692 159.894 171 162.613L174.108 151.235C175.872 153.13 177.993 154.37 180.422 155.259C180.789 155.394 181.297 155.462 181.478 155.118C181.538 154.975 181.556 154.818 181.53 154.665L181.176 149.618C184.154 152.74 186.636 156.301 188.536 160.176C190.579 156.198 192.087 151.967 193.021 147.594C195.575 150.202 198.65 152.258 202.201 153.035C201.243 149.755 200.584 146.395 200.234 142.996C201.11 144.394 202.256 145.603 203.604 146.555C204.952 147.507 206.475 148.181 208.085 148.539C207.064 145.994 206.231 143.377 205.594 140.709C207.476 142.97 209.851 144.769 212.536 145.968C215.221 147.167 218.146 147.734 221.084 147.627C220.43 143.082 219.205 138.637 217.439 134.399C219.101 136.187 221.331 137.346 223.75 137.679C222.455 131.875 220.696 126.184 218.488 120.663C218.445 120.554 218.396 120.449 218.35 120.335C214.48 118.281 210.254 116.983 205.899 116.51Z" fill="#61B5FF"/>
</g>
<path d="M16.5505 192.571C16.3735 193.191 15.6818 193.135 15.567 192.496C14.9703 189.337 13.8623 186.333 12.1641 183.916C10.4101 181.42 7.99716 179.609 5.41705 179.068C4.92856 178.963 4.81701 178.146 5.24977 177.845C10.2952 174.328 13.9474 167.647 15.5079 160.504C15.6456 159.871 16.3538 159.867 16.4915 160.504C17.2914 163.967 18.2881 167.46 19.9043 170.343C21.5206 173.226 23.7106 175.686 26.2612 177.061C26.6973 177.293 26.6808 178.094 26.2284 178.281C24.7892 178.939 23.5339 179.942 22.573 181.2C20.1568 184.253 17.7734 188.34 16.5505 192.571Z" fill="white"/>
<path d="M58.1859 52.9781C58.0843 53.3323 57.6876 53.306 57.6187 52.9321C57.3157 51.1721 56.6455 49.4957 55.6517 48.0122C54.6452 46.5789 53.2617 45.5392 51.7799 45.2276C51.7144 45.1999 51.6574 45.1556 51.6142 45.0991C51.571 45.0426 51.5433 44.9758 51.5337 44.9054C51.5241 44.8349 51.5329 44.7631 51.5594 44.6972C51.5859 44.6312 51.6291 44.5732 51.6848 44.529C54.5796 42.5119 56.6745 38.6743 57.5859 34.5777C57.5859 34.502 57.616 34.4294 57.6695 34.3759C57.723 34.3224 57.7955 34.2923 57.8712 34.2923C57.9468 34.2923 58.0194 34.3224 58.0729 34.3759C58.1264 34.4294 58.1564 34.502 58.1564 34.5777C58.6154 36.5653 59.1859 38.5726 60.1235 40.2224C61.0611 41.8722 62.3068 43.2892 63.769 44.0763C63.8263 44.1159 63.8729 44.1691 63.9046 44.2311C63.9362 44.2932 63.952 44.3621 63.9503 44.4317C63.9487 44.5013 63.9298 44.5695 63.8953 44.63C63.8608 44.6905 63.8117 44.7414 63.7526 44.7783C62.9275 45.1566 62.2073 45.7308 61.6545 46.451C60.0991 48.3896 58.9224 50.6039 58.1859 52.9781V52.9781Z" fill="white"/>
<path d="M219.762 143.015C216.723 143.109 213.701 142.535 210.908 141.333C208.115 140.131 205.62 138.331 203.599 136.058L205.924 143.684C204.489 143.46 203.142 142.848 202.028 141.915C200.915 140.981 200.078 139.762 199.606 138.387C198.605 141.965 198.754 145.768 200.032 149.257C198.247 148.848 196.6 147.979 195.255 146.736C193.91 145.493 192.913 143.92 192.364 142.172C191.762 146.827 190.153 151.296 187.65 155.266C185.807 150.802 183.388 148.115 179.887 144.789C179.464 147.254 179.551 149.779 180.142 152.209C177.205 150.956 174.724 148.828 173.038 146.115L170.107 157.24C170.092 157.36 170.052 157.475 169.991 157.579C169.931 157.684 169.85 157.775 169.753 157.847C169.458 158.011 169.097 157.798 168.835 157.591C165.488 154.967 163.016 152.419 161.141 148.614C159.175 151.788 156.929 154.779 154.43 157.552C152.905 154.036 152.994 151.402 151.784 147.764C145.778 129.702 144.103 125.717 140.693 113.686C146.981 99.8612 156.593 85.9675 170.238 79.3093C176.69 76.1605 184.047 74.0614 191.036 75.7013C198.21 77.3839 204.179 85.6854 209.494 90.789C212.739 103.495 216.297 111.866 221.624 123.85C223.512 128.114 225.607 132.424 229.02 135.596C223.29 134.368 217.868 131.989 213.084 128.603C214.713 134.176 215.621 138.954 219.762 143.015Z" fill="#FFC54C"/>
<path d="M211.592 106.047C212.149 104.899 212.601 103.702 212.943 102.472C211.72 98.8641 210.589 95.0725 209.494 90.7857C204.179 85.6821 198.21 77.3807 191.036 75.6981C184.047 74.0581 176.69 76.1605 170.238 79.306C156.593 85.9642 146.981 99.8579 140.693 113.683C141.568 116.779 142.332 119.341 143.083 121.745C143.411 122.037 143.768 122.312 144.132 122.571C147.011 124.611 152.443 125.366 154.007 121.194C154.564 119.701 154.797 117.455 156.39 117.471C157 117.471 157.518 117.881 158.029 118.229C159.701 119.387 161.78 120.062 163.789 119.747C165.799 119.432 167.678 118.002 168.212 116.041C168.54 114.89 168.379 113.653 168.684 112.499C168.989 111.344 170.051 110.203 171.209 110.501C171.697 110.664 172.135 110.953 172.477 111.338C174.284 113.069 175.982 114.982 178.182 116.169C180.382 117.356 183.286 117.661 185.276 116.149C187.329 114.591 187.761 111.744 188.177 109.202C188.273 108.625 188.45 107.953 188.997 107.74C189.712 107.461 190.394 108.179 190.833 108.809C191.695 110.036 192.639 111.285 193.987 111.944C195.334 112.604 197.193 112.456 198.052 111.226C198.865 110.055 198.501 108.478 198.56 107.051C198.619 105.624 199.734 103.915 201.081 104.378C201.571 104.6 201.983 104.964 202.262 105.424C203.681 107.359 205.35 109.773 207.74 109.54C209.537 109.366 210.792 107.681 211.592 106.047Z" fill="#F7B643"/>
<path d="M200.214 112.076C199.614 111.116 198.792 110.314 197.818 109.737C196.572 109.098 195.184 108.786 193.785 108.832C191.644 108.832 189.418 109.327 187.779 110.705C186.412 111.859 185.573 113.509 184.445 114.9C184.168 115.243 183.859 115.559 183.524 115.844C182.676 116.574 181.687 117.121 180.619 117.45C179.55 117.779 178.425 117.883 177.314 117.757C176.877 117.709 176.445 117.623 176.023 117.497C174.308 116.983 172.685 116.09 170.905 115.907C168.774 115.687 166.643 116.527 164.886 117.737C163.705 118.488 162.732 119.526 162.06 120.754C161.585 121.78 161.36 122.904 161.404 124.034C161.496 129.148 165.859 133.444 170.767 134.881C175.59 136.291 180.773 135.465 185.612 134.087L185.737 134.045L185.868 134.008C190.641 132.424 195.375 130.187 198.585 126.307C201.824 122.362 203.014 116.353 200.214 112.076Z" fill="black"/>
<path d="M190.139 124.385C188.488 124.547 186.927 125.21 185.663 126.285C184.4 127.361 183.495 128.796 183.071 130.4C181.85 129.473 180.371 128.948 178.839 128.898C177.307 128.847 175.797 129.274 174.517 130.118C172.842 131.276 171.76 133.07 170.839 134.907C175.639 136.285 180.792 135.458 185.592 134.09L185.716 134.048L185.848 134.012C189.991 132.634 194.119 130.768 197.224 127.78C196.423 126.664 195.354 125.768 194.116 125.175C192.878 124.581 191.51 124.31 190.139 124.385V124.385Z" fill="#FF6C69"/>
<path d="M187.7 119.954C189.365 118.573 189.441 115.69 187.844 114.224C188.946 115.133 190.218 116.038 191.644 115.966C193.198 115.89 194.532 114.539 194.798 113.014C195.063 111.489 194.388 109.901 193.257 108.852C191.29 108.924 189.283 109.448 187.778 110.714C186.411 111.869 185.572 113.519 184.444 114.909C184.167 115.252 183.859 115.569 183.523 115.854C182.807 116.471 181.988 116.957 181.104 117.291C181.385 117.888 181.7 118.468 182.048 119.029C183.182 120.859 186.044 121.332 187.7 119.954Z" fill="white"/>
<path d="M173.746 129.282C173.386 128.757 172.883 128.345 172.297 128.095C170.802 127.527 169.15 128.584 168.215 129.886C167.541 130.836 167.086 131.925 166.884 133.074C168.078 133.867 169.383 134.477 170.756 134.884C172.096 135.27 173.475 135.504 174.867 135.58C174.962 134.908 175.009 134.231 175.008 133.553C175.043 132.032 174.602 130.539 173.746 129.282V129.282Z" fill="white"/>
<path d="M197.847 120.751C196.345 120.2 194.381 120.259 193.467 121.571C193.122 122.106 192.938 122.729 192.936 123.365C192.936 124.887 193.411 126.371 194.296 127.609C194.676 128.171 195.096 128.704 195.555 129.203C196.666 128.357 197.677 127.386 198.568 126.31C199.474 125.204 200.209 123.968 200.748 122.644C199.934 121.804 198.943 121.158 197.847 120.751V120.751Z" fill="white"/>
<path d="M194.207 110.872L194.535 110.708C194.253 109.998 193.817 109.361 193.257 108.842C191.29 108.914 189.283 109.439 187.778 110.705C186.411 111.859 185.572 113.509 184.444 114.9C184.167 115.243 183.859 115.559 183.523 115.844C182.807 116.461 181.988 116.948 181.104 117.281C181.385 117.878 181.7 118.459 182.048 119.019C182.279 119.39 182.579 119.713 182.933 119.971C183.788 119.782 184.612 119.471 185.379 119.049C186.739 118.285 187.831 117.166 188.864 115.972C188.701 115.303 188.347 114.695 187.844 114.224C188.331 114.64 188.852 115.014 189.401 115.343C190.844 113.634 192.244 111.876 194.207 110.872Z" fill="#E5E5E5"/>
<path d="M167.174 121.519C168.259 122.637 170.125 123.001 171.436 122.175C172.656 121.43 173.196 119.964 173.596 118.593C173.098 120.702 174.783 123.047 176.937 123.247C179.091 123.447 181.183 121.456 181.084 119.311C181.056 118.652 180.991 117.995 180.888 117.343C179.738 117.748 178.512 117.886 177.301 117.747C176.864 117.699 176.431 117.613 176.009 117.488C174.295 116.973 172.672 116.08 170.892 115.897C169.244 115.778 167.598 116.145 166.158 116.953C166.137 117.019 166.119 117.085 166.105 117.153C165.755 118.678 166.089 120.397 167.174 121.519Z" fill="white"/>
<path d="M174.691 119.741C176.759 120.052 178.93 120.364 181.005 120.236C181.078 119.934 181.109 119.622 181.097 119.311C181.069 118.652 181.003 117.995 180.9 117.343C179.75 117.748 178.524 117.886 177.313 117.747C176.876 117.699 176.444 117.613 176.022 117.488C174.307 116.973 172.684 116.08 170.904 115.897C169.257 115.778 167.611 116.145 166.17 116.953C166.149 117.019 166.132 117.085 166.118 117.153C165.907 118.018 165.927 118.923 166.177 119.777L166.377 119.711C168.616 119.055 171.006 119.236 173.311 119.544C173.422 119.236 173.52 118.924 173.609 118.613C173.536 118.927 173.508 119.251 173.527 119.574L174.691 119.741Z" fill="#E5E5E5"/>
<path d="M167.685 130.755C167.301 131.481 167.033 132.262 166.888 133.071C168.082 133.864 169.387 134.474 170.76 134.881C172.1 135.267 173.479 135.5 174.871 135.576C174.966 134.905 175.013 134.228 175.012 133.549C175.012 133.284 174.996 133.018 174.973 132.752C172.446 132.518 169.979 131.842 167.685 130.755V130.755Z" fill="#E5E5E5"/>
<path d="M194.303 127.609C194.682 128.171 195.103 128.704 195.562 129.203C196.673 128.357 197.683 127.386 198.575 126.311C199.48 125.204 200.215 123.968 200.755 122.644C200.111 121.984 199.358 121.441 198.529 121.04C197.26 123.293 195.863 125.477 194.116 127.317C194.175 127.416 194.24 127.511 194.303 127.609Z" fill="#E5E5E5"/>
<path d="M143.039 74.2124C142.995 71.5795 142.616 68.9629 141.911 66.4259C141.475 64.8646 140.822 63.2181 139.436 62.3784C138.049 61.5388 135.793 62.0931 135.528 63.6904C135.17 62.3128 134.8 60.909 134.023 59.7184C133.246 58.5278 131.977 57.5668 130.558 57.5373C129.138 57.5078 127.682 58.6623 127.722 60.0825C125.779 58.6883 123.617 57.6285 121.326 56.9469C120.109 56.5828 118.493 56.4811 117.87 57.5864C117.329 58.5442 117.946 59.7249 118.585 60.6171C119.736 62.2238 121.015 63.7343 122.411 65.1335C120.545 64.8777 118.916 66.9539 119.241 68.8136C119.565 70.6733 121.368 72.0181 123.234 72.2805C121.358 72.8905 120.965 75.6359 122.122 77.2332C123.28 78.8305 125.358 79.4537 127.312 79.6898C126.794 81.0543 127.735 82.6417 129.046 83.278C130.358 83.9143 131.908 83.8061 133.338 83.5109C136.962 82.7568 140.275 80.9281 142.845 78.263" fill="#FFC54C"/>
<path d="M137.671 67.9444C133.016 71.7491 129.904 77.5578 129.573 83.4944C130.763 83.8847 132.094 83.77 133.337 83.5141C136.961 82.76 140.274 80.9313 142.844 78.2663L143.041 74.2287C142.998 71.5958 142.619 68.9792 141.913 66.4422C141.848 66.2093 141.776 65.9732 141.7 65.7403C140.235 66.0978 138.858 66.9735 137.671 67.9444Z" fill="#EFA829"/>
<path d="M141.065 76.3442C139.819 72.5617 137.437 69.256 134.243 66.8783C132.981 65.9435 131.493 65.1367 129.929 65.2581C129.402 65.2798 128.896 65.4681 128.483 65.7959C127.847 66.347 127.68 67.2818 127.758 68.1247C127.886 69.476 128.526 70.7289 129.273 71.8638C131.568 75.3403 134.892 78.0114 138.78 79.5027" fill="#FF6C69"/>
<path d="M131.921 75.0815C133.878 77.0141 136.215 78.5195 138.783 79.5029L141.078 76.3443C140.159 73.5587 138.62 71.0183 136.576 68.9153C134.683 70.6891 133.109 72.7748 131.921 75.0815Z" fill="#F25151"/>
<path d="M185.916 61.0011C184.472 58.7985 183.315 56.4212 182.471 53.9263C181.953 52.3913 181.566 50.6464 182.238 49.1868C182.91 47.7273 185.09 46.8908 186.211 48.0716C185.732 46.7334 185.247 45.3657 185.228 43.9455C185.208 42.5253 185.706 41.0132 186.867 40.19C188.027 39.3667 189.876 39.5012 190.643 40.6984C191.466 38.4516 192.657 36.3578 194.168 34.5026C194.968 33.5187 196.246 32.5347 197.384 33.089C198.367 33.5777 198.525 34.8995 198.499 35.9983C198.449 37.9734 198.24 39.9412 197.873 41.8824C199.272 40.6197 201.79 41.4232 202.564 43.1419C203.338 44.8606 202.61 46.9892 201.213 48.2553C203.108 47.7043 204.977 49.751 204.918 51.7222C204.859 53.6934 203.495 55.3825 202.01 56.6781C203.203 57.5145 203.321 59.3545 202.593 60.614C201.866 61.8735 200.525 62.6574 199.177 63.2183C195.753 64.6306 191.981 64.9737 188.359 64.2023" fill="#FFC54C"/>
<path d="M186.829 52.7945C192.815 53.3193 198.654 56.3697 202.267 61.0927C201.506 62.0767 200.339 62.7327 199.168 63.2247C195.744 64.637 191.973 64.98 188.35 64.2087L185.914 60.9845C184.47 58.7819 183.312 56.4046 182.468 53.9097C182.389 53.6801 182.317 53.4473 182.249 53.2111C183.668 52.7126 185.301 52.6634 186.829 52.7945Z" fill="#EFA829"/>
<path d="M188.745 61.6503C187.654 57.8201 187.768 53.7464 189.073 49.9836C189.591 48.5011 190.365 46.9956 191.729 46.215C192.176 45.9374 192.699 45.8078 193.224 45.8444C194.063 45.9428 194.725 46.6217 195.135 47.363C195.791 48.5536 195.964 49.9476 195.987 51.2989C196.044 55.4659 194.797 59.5464 192.421 62.9688" fill="#FF6C69"/>
<path d="M195.597 55.4576C195.065 58.1566 193.98 60.7162 192.41 62.9752L188.745 61.6633C187.939 58.8432 187.783 55.8769 188.289 52.9878C190.848 53.3894 193.319 54.2247 195.597 55.4576Z" fill="#F25151"/>
<path d="M141.507 115.418C142.697 117.268 143.963 119.19 145.884 120.256C147.805 121.322 150.578 121.2 151.827 119.393C152.565 118.324 153.057 118.357 153.345 117.097C153.634 115.838 154.365 114.473 155.64 114.237C157.397 113.929 158.348 115.018 159.801 116.057C162.138 117.73 165.728 116.156 166.915 113.538C167.57 112.076 167.488 110.39 167.882 108.832C168.275 107.274 169.521 105.66 171.121 105.837C171.779 105.952 172.39 106.256 172.878 106.713C174.363 107.953 175.36 109.665 176.645 111.115C177.93 112.564 179.74 113.794 181.661 113.545C183.464 113.312 184.887 111.784 185.533 110.081C186.12 108.533 186.189 106.854 186.189 105.191C186.188 104.875 186.272 104.564 186.43 104.291C186.588 104.017 186.816 103.79 187.09 103.633C187.365 103.476 187.675 103.394 187.991 103.396C188.307 103.398 188.618 103.483 188.89 103.643C189.874 104.256 190.362 105.394 190.952 106.391C191.542 107.389 192.404 108.307 193.522 108.287C194.755 108.268 196.273 107.976 196.765 105.568C197.86 100.186 200.676 100.976 201.286 101.734C202.049 102.573 202.86 103.367 203.715 104.112C205.449 105.712 207.649 104.44 209.029 102.521C209.685 101.583 209.957 100.412 210.114 99.2675V99.2052C210.483 96.3913 210.267 93.5315 209.478 90.8053C206.2 79.3256 204.705 73.6284 204.197 71.1258C202.689 63.723 194.69 55.5889 181.992 57.6454C181.805 57.6749 181.615 57.6683 181.425 57.6913C174.317 58.5145 173.731 60.3415 166.105 55.5626C163.735 54.0768 161.587 49.1733 159.676 45.7819C159.428 45.3344 159.283 44.8371 159.252 44.3264C159.221 43.8156 159.304 43.3044 159.496 42.83C160.023 41.4976 160.128 40.0354 159.798 38.641C159.468 37.2465 158.718 35.9871 157.65 35.0327C156.582 34.0784 155.246 33.4751 153.824 33.3044C152.402 33.1337 150.962 33.4039 149.698 34.0783C148.434 34.7528 147.408 35.799 146.757 37.0758C146.107 38.3525 145.864 39.7982 146.061 41.2176C146.258 42.6369 146.886 43.9615 147.86 45.0124C148.834 46.0633 150.106 46.7898 151.506 47.0939C151.999 47.2059 152.459 47.4287 152.853 47.7452C153.246 48.0617 153.563 48.4638 153.778 48.9208C154.401 50.2328 155.089 51.689 155.857 53.3224C157.515 56.8811 156.984 59.8495 155.771 62.1159C154.629 64.2067 152.775 65.8185 150.546 66.6586C148.716 67.3605 146.756 68.1706 144.681 69.1054C132.767 74.4746 131.239 85.5837 133.649 92.8651C134.544 95.5316 141.484 115.457 141.507 115.418Z" fill="#8A87F9"/>
<path d="M157.935 113.762C163.55 113.762 168.101 109.208 168.101 103.591C168.101 97.9733 163.55 93.4196 157.935 93.4196C152.32 93.4196 147.769 97.9733 147.769 103.591C147.769 109.208 152.32 113.762 157.935 113.762Z" fill="#6D6DE2"/>
<path d="M158.713 113.568C163.799 113.568 167.922 109.443 167.922 104.355C167.922 99.2665 163.799 95.1416 158.713 95.1416C153.627 95.1416 149.504 99.2665 149.504 104.355C149.504 109.443 153.627 113.568 158.713 113.568Z" fill="white"/>
<path d="M158.997 110.813C162.74 110.813 165.774 107.777 165.774 104.033C165.774 100.289 162.74 97.2536 158.997 97.2536C155.255 97.2536 152.221 100.289 152.221 104.033C152.221 107.777 155.255 110.813 158.997 110.813Z" fill="#1FD2FF"/>
<path d="M158.998 108.159C161.275 108.159 163.122 106.312 163.122 104.033C163.122 101.755 161.275 99.9072 158.998 99.9072C156.72 99.9072 154.873 101.755 154.873 104.033C154.873 106.312 156.72 108.159 158.998 108.159Z" fill="black"/>
<path d="M155.627 104.971C156.994 104.971 158.102 103.863 158.102 102.495C158.102 101.127 156.994 100.019 155.627 100.019C154.26 100.019 153.152 101.127 153.152 102.495C153.152 103.863 154.26 104.971 155.627 104.971Z" fill="white"/>
<path d="M192.575 103.085C198.189 103.085 202.741 98.5317 202.741 92.9144C202.741 87.2971 198.189 82.7434 192.575 82.7434C186.96 82.7434 182.408 87.2971 182.408 92.9144C182.408 98.5317 186.96 103.085 192.575 103.085Z" fill="#6D6DE2"/>
<path d="M192.364 103.197C197.45 103.197 201.574 99.0719 201.574 93.9836C201.574 88.8952 197.45 84.7703 192.364 84.7703C187.278 84.7703 183.155 88.8952 183.155 93.9836C183.155 99.0719 187.278 103.197 192.364 103.197Z" fill="white"/>
<path d="M191.949 100.658C195.692 100.658 198.725 97.623 198.725 93.8787C198.725 90.1344 195.692 87.0991 191.949 87.0991C188.206 87.0991 185.172 90.1344 185.172 93.8787C185.172 97.623 188.206 100.658 191.949 100.658Z" fill="#1FD2FF"/>
<path d="M191.948 98.0049C194.226 98.0049 196.073 96.1575 196.073 93.8787C196.073 91.5999 194.226 89.7526 191.948 89.7526C189.671 89.7526 187.824 91.5999 187.824 93.8787C187.824 96.1575 189.671 98.0049 191.948 98.0049Z" fill="black"/>
<path d="M193.87 93.1866C195.237 93.1866 196.346 92.0779 196.346 90.7103C196.346 89.3426 195.237 88.2339 193.87 88.2339C192.503 88.2339 191.395 89.3426 191.395 90.7103C191.395 92.0779 192.503 93.1866 193.87 93.1866Z" fill="white"/>
<path d="M169.508 90.7595C175.123 90.7595 179.675 86.2058 179.675 80.5885C179.675 74.9712 175.123 70.4175 169.508 70.4175C163.894 70.4175 159.342 74.9712 159.342 80.5885C159.342 86.2058 163.894 90.7595 169.508 90.7595Z" fill="#6D6DE2"/>
<path d="M170.144 90.6085C175.23 90.6085 179.353 86.4836 179.353 81.3952C179.353 76.3069 175.23 72.1819 170.144 72.1819C165.058 72.1819 160.935 76.3069 160.935 81.3952C160.935 86.4836 165.058 90.6085 170.144 90.6085Z" fill="white"/>
<path d="M170.288 87.8995C174.031 87.8995 177.065 84.8641 177.065 81.1199C177.065 77.3756 174.031 74.3403 170.288 74.3403C166.546 74.3403 163.512 77.3756 163.512 81.1199C163.512 84.8641 166.546 87.8995 170.288 87.8995Z" fill="#1FD2FF"/>
<path d="M170.288 85.2461C172.566 85.2461 174.412 83.3988 174.412 81.12C174.412 78.8412 172.566 76.9938 170.288 76.9938C168.01 76.9938 166.164 78.8412 166.164 81.12C166.164 83.3988 168.01 85.2461 170.288 85.2461Z" fill="black"/>
<path d="M172.645 81.8349C174.012 81.8349 175.12 80.7262 175.12 79.3586C175.12 77.9909 174.012 76.8822 172.645 76.8822C171.278 76.8822 170.17 77.9909 170.17 79.3586C170.17 80.7262 171.278 81.8349 172.645 81.8349Z" fill="white"/>
<path d="M139.422 79.2601C138.287 80.8804 137.392 82.809 137.609 84.7736C137.825 86.7383 139.494 88.6341 141.471 88.5193C142.263 88.4442 143.018 88.1487 143.651 87.6665C145.546 86.325 146.628 84.1012 147.28 81.8709C147.788 80.1325 148.06 78.1777 147.218 76.5771C144.759 71.9098 141.035 76.9642 139.422 79.2601Z" fill="#7474E8"/>
<path d="M144.795 94.1476C144.546 93.8443 144.226 93.6071 143.863 93.4567C143.501 93.3063 143.107 93.2473 142.716 93.285L142.211 93.3801C141.107 94.2332 140.267 95.3817 139.789 96.6928C139.558 97.3485 139.482 98.049 139.568 98.7388C139.654 99.4287 139.899 100.089 140.284 100.668C141.097 101.79 142.661 102.38 143.952 101.878C144.446 101.656 144.881 101.321 145.223 100.901C145.564 100.481 145.803 99.9867 145.919 99.4578C146.148 98.3936 146.103 97.2888 145.788 96.2468C145.625 95.4791 145.285 94.7602 144.795 94.1476V94.1476Z" fill="#7474E8"/>
<path d="M152.398 81.3396C152.232 81.1378 152.019 80.9799 151.778 80.8798C151.536 80.7797 151.274 80.7405 151.014 80.7656L150.686 80.8279C149.952 81.3953 149.394 82.1596 149.077 83.032C148.922 83.4684 148.871 83.9348 148.928 84.3942C148.985 84.8536 149.148 85.2935 149.405 85.6789C149.672 86.0563 150.053 86.3379 150.492 86.4826C150.931 86.6272 151.405 86.6272 151.844 86.4825C152.173 86.3361 152.464 86.1139 152.692 85.8341C152.92 85.5543 153.078 85.2248 153.155 84.8721C153.306 84.1643 153.275 83.4298 153.066 82.7369C152.956 82.2252 152.727 81.7466 152.398 81.3396V81.3396Z" fill="#7474E8"/>
</svg>
