<svg width="24" height="24" viewBox="0 0 24 24" fill="none" xmlns="http://www.w3.org/2000/svg">
<path fill-rule="evenodd" clip-rule="evenodd" d="M11.9999 9.17157L16.2426 4.92893C17.0236 4.14788 18.29 4.14788 19.071 4.92893C19.8521 5.70997 19.8521 6.97631 19.071 7.75735L14.8284 12L19.071 16.2426C19.8521 17.0237 19.8521 18.29 19.071 19.0711C18.29 19.8521 17.0236 19.8521 16.2426 19.0711L11.9999 14.8284L7.75729 19.0711C6.97624 19.8521 5.70991 19.8521 4.92887 19.0711C4.14782 18.29 4.14782 17.0237 4.92887 16.2426L9.17151 12L4.92887 7.75735C4.14782 6.97631 4.14782 5.70998 4.92887 4.92893C5.70992 4.14788 6.97625 4.14788 7.7573 4.92893L11.9999 9.17157Z" fill="#D3D7EC"/>
</svg>
