<svg width="68" height="68" viewBox="0 0 68 68" fill="none" xmlns="http://www.w3.org/2000/svg">
<circle cx="34" cy="34" r="34" fill="#F0E7FF"/>
<path d="M31.2 24.2C28 26.3 24.8 30.3 24.2 33.7C24.4 33.6 25.2 33.5 26 33.5C29.5 33.5 32.2 36.2001 32.2 40.1C32.2 44 29.1 47.2001 25.1 47.2001C20.8 47.2001 17 43.7001 17 37.6C17 30.5 20.8 24.1 26.5 20C26.7 19.9 26.9 19.9 27.1 20L31.3 23.3C31.5 23.6 31.5 24.1 31.2 24.2ZM50.7 24.2C47.5 26.3 44.3 30.3 43.7 33.7C43.9 33.6 44.7 33.5 45.5 33.5C49 33.5 51.7 36.2001 51.7 40.1C51.7 44 48.5 47.2001 44.5 47.2001C40.2 47.2001 36.4 43.7001 36.4 37.6C36.4 30.5 40.2 24.1 45.9 20C46.1 19.9 46.3 19.9 46.5 20L50.7 23.3C51 23.6 51 24.1 50.7 24.2Z" fill="#4E10EB"/>
</svg>
