<svg width="101" height="101" viewBox="0 0 101 101" fill="none" xmlns="http://www.w3.org/2000/svg">
<path d="M50.3305 100.458C77.8511 100.458 100.161 78.0725 100.161 50.4583C100.161 22.844 77.8511 0.458252 50.3305 0.458252C22.8099 0.458252 0.5 22.844 0.5 50.4583C0.5 78.0725 22.8099 100.458 50.3305 100.458Z" fill="#FFA836"/>
<path fill-rule="evenodd" clip-rule="evenodd" d="M74.0594 88.4244H20.5001L22.3645 85.204H74.0594V88.4244Z" fill="#FF8B00"/>
<path d="M71.8558 60.4583C80.8389 58.5939 79.144 50.7972 74.5677 52.6617C74.5677 52.6617 76.7711 47.2379 72.5338 46.0515C68.466 44.865 65.5846 50.6278 65.5846 50.6278C65.5846 50.6278 59.6524 40.6278 53.3812 43.6786C47.1101 46.7294 49.6524 58.2549 49.6524 58.2549" fill="#B6DAFC"/>
<path d="M60.3307 64.187L32.873 55.8819C30.5002 55.204 29.3137 52.8311 29.9917 50.4582L42.5341 9.27178C43.212 6.8989 45.5849 5.71246 47.9578 6.39042L75.4154 14.6955C77.7883 15.3735 78.9747 17.7464 78.2968 20.1192L65.7544 61.3057C64.9069 63.6786 62.5341 64.865 60.3307 64.187Z" fill="#726D6E"/>
<path d="M57.1102 63.3396L29.6526 55.0345C27.2797 54.3565 26.0933 51.9837 26.7712 49.6108L39.3136 8.42434C39.9916 6.05146 42.3644 4.86502 44.7373 5.54298L72.1949 13.8481C74.5678 14.526 75.7543 16.8989 75.0763 19.2718L62.5339 60.4582C61.6865 62.6616 59.3136 64.0176 57.1102 63.3396Z" fill="#474545"/>
<path d="M71.6239 17.8616L42.4272 9.01724L31.3717 45.513L60.5683 54.3574L71.6239 17.8616Z" fill="white"/>
<path d="M44.5679 57.7464C46.2529 57.7464 47.6188 56.3804 47.6188 54.6955C47.6188 53.0106 46.2529 51.6447 44.5679 51.6447C42.883 51.6447 41.5171 53.0106 41.5171 54.6955C41.5171 56.3804 42.883 57.7464 44.5679 57.7464Z" fill="#232323"/>
<path d="M52.1948 36.2209C57.5305 36.2209 61.8559 31.8955 61.8559 26.5599C61.8559 21.2243 57.5305 16.8989 52.1948 16.8989C46.8592 16.8989 42.5338 21.2243 42.5338 26.5599C42.5338 31.8955 46.8592 36.2209 52.1948 36.2209Z" fill="#0091D1"/>
<path fill-rule="evenodd" clip-rule="evenodd" d="M62.1948 27.0684C62.1948 27.0684 63.3813 26.3904 63.5508 26.5599C63.7203 26.7294 63.3813 27.2379 63.3813 27.2379C63.3813 27.2379 63.7203 27.0684 63.8898 27.2379C64.0592 27.4074 63.7203 27.7464 63.7203 27.7464C63.7203 27.7464 64.0592 27.7464 64.0592 27.9158C64.0592 28.0853 63.3813 28.5938 63.3813 28.5938C63.3813 28.5938 60.8389 32.3226 58.466 34.187C56.0931 36.0514 59.3135 30.6277 59.3135 30.6277" fill="#92C33F"/>
<path fill-rule="evenodd" clip-rule="evenodd" d="M62.0253 27.2379C62.0253 27.5769 62.0253 28.2548 62.3642 27.9158C62.7032 27.5769 62.7032 27.0684 62.5337 26.8989C62.3643 27.0684 62.1948 27.0684 62.0253 27.2379Z" fill="#7FA53F"/>
<path fill-rule="evenodd" clip-rule="evenodd" d="M59.6523 28.5938C59.8218 28.4243 61.8557 27.2379 61.8557 27.2379C61.8557 27.2379 61.6862 26.5599 62.0252 26.3904C62.3642 26.3904 62.5337 26.8989 62.5337 26.8989C62.5337 26.8989 62.8727 27.0684 62.5337 27.9159L59.9913 30.6277" fill="#92C33F"/>
<path fill-rule="evenodd" clip-rule="evenodd" d="M60.8389 27.7463C60.3304 28.0853 59.6524 28.4243 59.6524 28.5938L59.8219 29.9497L59.144 30.6277C59.144 30.6277 58.466 31.6446 58.127 32.6616C58.127 33.3396 57.9575 34.0175 57.9575 34.526C58.127 34.526 58.2965 34.3565 58.466 34.187C59.4829 33.5091 60.3304 32.4921 61.1779 31.4752L60.8389 27.7463Z" fill="#7FA53F"/>
<path fill-rule="evenodd" clip-rule="evenodd" d="M41.0084 29.2718C41.6863 29.4413 43.8897 29.9497 45.7541 28.0853L44.7372 26.0514C44.7372 26.0514 41.6863 27.7463 40.8389 29.1023C40.8389 29.1023 40.8389 29.2718 41.0084 29.2718Z" fill="black"/>
<path fill-rule="evenodd" clip-rule="evenodd" d="M45.0762 26.7294L45.2457 24.865C45.2457 24.865 43.3813 23.3396 41.0084 23.3396C40.8389 23.3396 40.6694 23.5091 40.6694 23.6786C40.6694 24.3566 41.1779 26.3904 45.0762 26.7294Z" fill="#221E1F"/>
<path fill-rule="evenodd" clip-rule="evenodd" d="M53.3813 19.2718C53.2119 19.2718 52.0254 18.7633 50.6695 17.9159C49.3136 16.8989 47.7881 16.7294 47.4491 17.2379C46.9407 17.9159 48.4661 18.9328 48.1271 20.4582L53.3813 19.2718Z" fill="#92C33F"/>
<path fill-rule="evenodd" clip-rule="evenodd" d="M48.9746 20.1192C48.9746 19.6108 48.8051 18.7633 48.2966 18.0853C47.9576 17.5769 47.6186 17.2379 47.6186 16.8989L47.4491 17.0684C46.9407 17.7464 48.4661 18.7633 48.1271 20.2887L48.9746 20.1192Z" fill="#7FA53F"/>
<path fill-rule="evenodd" clip-rule="evenodd" d="M48.4661 35.3735C51.8559 36.8989 55.4152 36.3904 58.1271 34.1871C58.6356 33.8481 59.3135 33.1701 59.822 32.6616C60.3305 28.5938 60.3305 23.0006 58.8051 20.7972C56.6017 17.5769 49.144 19.4413 49.144 19.4413C49.144 19.4413 45.0763 19.9498 44.7373 22.4921C44.3983 24.526 45.5847 27.7464 45.4152 33.1701C46.2627 34.187 47.2796 34.865 48.4661 35.3735Z" fill="#92C33F"/>
<path fill-rule="evenodd" clip-rule="evenodd" d="M52.3644 24.1871L45.4152 26.0515L44.9067 26.7294C44.9067 27.2379 45.0762 27.7464 45.0762 28.2549C47.4491 26.0515 53.2118 24.865 53.2118 24.865L52.3644 24.1871Z" fill="#7FA53F"/>
<path fill-rule="evenodd" clip-rule="evenodd" d="M51.6865 18.9328C50.161 19.1023 49.1441 19.2718 49.1441 19.2718C49.1441 19.2718 45.0763 19.7803 44.7373 22.3227C44.5678 23.0006 44.7373 23.8481 44.7373 24.865L54.9068 21.4752C54.9068 21.4752 48.2966 21.4752 48.1271 20.6277C48.1271 19.9498 51.6865 19.1023 51.6865 18.9328Z" fill="#7FA53F"/>
<path fill-rule="evenodd" clip-rule="evenodd" d="M45.7542 15.543C45.9236 14.865 46.4321 14.526 47.1101 14.6955C47.788 14.865 48.127 15.3735 47.9575 16.0515C47.788 16.7294 47.2796 17.0684 46.6016 16.8989C46.0931 16.7294 45.7542 16.0515 45.7542 15.543Z" fill="#92C33F"/>
<path fill-rule="evenodd" clip-rule="evenodd" d="M44.9067 27.4074C44.9067 27.4074 51.8559 22.4921 60.161 26.2209C60.161 26.2209 60.161 24.0175 59.6525 22.8311C59.144 21.6447 51.1779 19.9497 44.5677 24.3565L44.9067 27.4074Z" fill="#221E1F"/>
<path fill-rule="evenodd" clip-rule="evenodd" d="M56.2627 27.0684C56.2627 26.8989 56.0932 26.7294 55.9237 26.7294C55.7542 26.7294 55.5847 26.8989 55.5847 27.0684C55.5847 27.2379 55.7542 27.4074 55.9237 27.4074C56.0932 27.4074 56.2627 27.2379 56.2627 27.0684Z" fill="black"/>
<path fill-rule="evenodd" clip-rule="evenodd" d="M50.1609 26.8989C50.1609 26.7294 49.9914 26.5599 49.8219 26.5599C49.6524 26.5599 49.4829 26.7294 49.4829 26.8989C49.4829 27.0684 49.6524 27.2379 49.8219 27.2379C49.9914 27.2379 50.1609 27.0684 50.1609 26.8989Z" fill="black"/>
<path fill-rule="evenodd" clip-rule="evenodd" d="M55.0761 28.2549C54.7371 28.2549 54.3981 28.4244 54.2286 28.4244C53.5507 28.4244 52.5337 28.5939 51.5168 28.2549C49.8219 27.7464 48.8049 28.2549 48.6354 29.7803C48.4659 31.3057 50.4998 32.8312 52.1947 32.8312C53.8897 33.0006 55.2456 32.6617 56.2625 31.4752C57.2795 30.1193 57.2795 29.2718 56.432 28.5939C56.093 28.0854 55.4151 28.2549 55.0761 28.2549Z" fill="black"/>
<path fill-rule="evenodd" clip-rule="evenodd" d="M56.4319 31.3057C55.5845 30.7972 54.5675 30.2888 53.0421 30.4583C51.5167 30.4583 50.3303 31.3057 49.8218 31.8142C50.4997 32.3227 51.5167 32.8311 52.3642 32.8311C54.0591 33.0006 55.2455 32.6617 56.4319 31.3057Z" fill="#F48B8C"/>
<path fill-rule="evenodd" clip-rule="evenodd" d="M56.4319 31.4752L56.093 31.1362C55.754 30.9667 55.5845 30.9667 55.2455 30.7972C55.415 31.1362 55.5845 31.4752 55.5845 31.4752C54.398 30.7972 54.2286 32.1531 54.2286 32.1531C53.2116 31.3057 52.7031 32.3226 52.7031 32.3226C52.1947 31.1362 51.1777 31.9836 51.1777 31.9836C51.1777 31.6447 51.0082 31.1362 51.0082 31.1362C50.4997 31.4752 50.1608 31.6447 49.8218 31.9836C50.4997 32.4921 51.5167 33.0006 52.3642 33.0006C54.0591 33.0006 55.2455 32.6616 56.4319 31.4752Z" fill="#DF6E74"/>
<path fill-rule="evenodd" clip-rule="evenodd" d="M51.8558 31.6447C51.3473 31.6447 51.0084 31.9837 50.8389 32.4921C51.3473 32.6616 51.8558 32.8311 52.3643 32.8311C52.5338 32.8311 52.5338 32.8311 52.7033 32.8311C52.5338 32.3226 52.3643 31.6447 51.8558 31.6447Z" fill="white"/>
<path fill-rule="evenodd" clip-rule="evenodd" d="M49.3135 31.4752C49.6525 31.9837 50.1609 32.3226 50.8389 32.4921C51.0084 31.9837 51.0084 31.1362 50.4999 30.9667C49.9914 30.7972 49.6525 31.1362 49.3135 31.4752Z" fill="white"/>
<path fill-rule="evenodd" clip-rule="evenodd" d="M56.9406 30.6277C56.6016 30.4583 56.0932 30.2888 55.7542 30.6277C55.4152 30.9667 55.5847 31.4752 55.7542 31.8142C55.4152 31.4752 54.9067 31.1362 54.5677 31.4752C54.0593 31.8142 54.2288 32.3227 54.3983 32.8311C55.0762 32.6616 55.7542 32.3227 56.4321 31.6447C56.6016 31.1362 56.7711 30.7972 56.9406 30.6277Z" fill="white"/>
<path fill-rule="evenodd" clip-rule="evenodd" d="M52.5338 32.8311C53.2118 32.8311 53.7203 32.8311 54.3982 32.6616C54.2287 32.1531 53.7203 31.6447 53.2118 31.8142C52.7033 31.9837 52.7033 32.4921 52.5338 32.8311Z" fill="white"/>
<path fill-rule="evenodd" clip-rule="evenodd" d="M48.9745 33.1701C48.9745 33.1701 49.144 32.3226 48.2966 31.9836C48.2966 31.9836 48.805 32.4921 48.1271 33.3396C48.1271 33.3396 51.8559 33.3396 51.6864 36.2209C51.8559 36.2209 52.1949 36.2209 52.3644 36.2209C52.3644 35.543 52.1949 33.5091 48.9745 33.1701Z" fill="#7FA53F"/>
<path fill-rule="evenodd" clip-rule="evenodd" d="M45.4152 30.4582C45.4152 30.4582 43.5508 33.3396 44.9068 34.6955C46.2627 36.0514 48.2966 35.543 48.2966 35.543C48.2966 35.543 50.3305 36.0514 51.6864 36.2209L47.7881 33.8481L45.4152 30.4582Z" fill="#92C33F"/>
<path d="M40.1104 37.1131L40.5089 35.7976L42.0595 36.2673L42.2868 35.517L40.7362 35.0473L40.8938 34.5271L42.4794 35.0074L42.7067 34.2571L40.2607 33.5161L39.25 36.8525L40.1104 37.1131ZM45.0075 38.5966L44.6985 37.165C45.047 37.1504 45.491 36.9464 45.6668 36.3662C45.8547 35.7459 45.583 35.1284 44.8427 34.9042L43.172 34.3981L42.1614 37.7344L43.0217 37.9951L43.3611 36.8746L43.8013 37.0079L44.0221 38.2981L45.0075 38.5966ZM44.2687 36.3304L43.5884 36.1243L43.8051 35.409L44.4854 35.6151C44.7155 35.6848 44.8627 35.8659 44.793 36.096C44.7218 36.3311 44.4988 36.4001 44.2687 36.3304ZM47.9144 39.4772L48.1417 38.7269L46.556 38.2465L46.7272 37.6813L48.2779 38.151L48.5052 37.4007L46.9545 36.931L47.1121 36.4108L48.6978 36.8911L48.9251 36.1408L46.4791 35.3998L45.4684 38.7362L47.9144 39.4772ZM50.8599 40.3694L51.0872 39.6191L49.5016 39.1388L49.6728 38.5736L51.2234 39.0433L51.4507 38.293L49.9001 37.8233L50.0577 37.3031L51.6433 37.7834L51.8706 37.0331L49.4246 36.2921L48.4139 39.6285L50.8599 40.3694Z" fill="black"/>
<path d="M28.2967 60.9667C19.6526 59.6108 21.1781 53.3396 25.5848 54.865C25.5848 54.865 23.5509 50.4582 27.6187 49.6108C31.6865 48.7633 34.3984 53.3396 34.3984 53.3396C34.3984 53.3396 40.1611 45.3735 46.2628 47.7464C52.3645 50.1192 49.8221 59.4413 49.8221 59.4413" fill="#B6DAFC"/>
<path d="M73.0424 87.2379H28.2967C26.0933 87.2379 24.2289 85.543 23.8899 83.3396L21.3475 63.3396C21.0085 60.6278 23.0424 58.4244 25.7543 58.4244H75.2458C77.9577 58.4244 79.9916 60.7973 79.6526 63.3396L77.4492 83.3396C77.2797 85.543 75.2458 87.2379 73.0424 87.2379Z" fill="#00AEEF"/>
<path d="M19.3135 79.4413C18.4661 81.1362 15.9237 82.4921 13.0424 83.5091C14.9068 85.7125 17.1102 87.7464 19.3135 89.4413C23.2119 87.5769 26.6017 85.3735 27.6186 82.6616C30.5 75.7125 22.3644 63.1701 31.8559 58.0854H23.2118C15.4152 65.3735 21.5169 74.6955 19.3135 79.4413Z" fill="#FEDA1E"/>
<path d="M75.4152 58.4244H55.4152L52.3644 87.2379H73.0423C75.2457 87.2379 77.1101 85.543 77.4491 83.3396L79.6525 63.3396C79.9915 60.6278 77.9576 58.4244 75.4152 58.4244Z" fill="#0091D1"/>
<path d="M43.5509 87.2379H35.9238L37.9577 58.4244H43.5509V87.2379Z" fill="#FEDA1E"/>
<path d="M85.5847 85.7125C80.6695 84.8651 72.5339 82.8312 71.0084 79.4413C68.6356 74.6956 74.7372 65.3735 67.1101 58.2549H58.4661C67.9576 63.3396 59.822 75.882 62.7034 82.8312C64.3983 87.0684 72.0254 90.2888 77.7881 92.1532C80.6695 90.2888 83.2118 88.0854 85.5847 85.7125Z" fill="#FEDA1E"/>
<path opacity="0.5" fill-rule="evenodd" clip-rule="evenodd" d="M70.5 63.1701L62.8729 64.0176C64.0594 69.4413 61.178 76.7294 62.3644 81.6447L70.839 78.7633C69.6526 74.865 72.5339 68.7633 70.5 63.1701Z" fill="#FFA836"/>
<path fill-rule="evenodd" clip-rule="evenodd" d="M24.7373 23.6786C23.3813 27.5769 20.161 29.4413 17.6186 30.2887C16.7712 30.6277 16.7712 31.6447 17.6186 31.8142C21.8559 33.3396 23.8898 36.5599 24.7373 39.2718C25.0763 39.9498 26.0932 39.9498 26.4322 39.2718C27.2796 36.5599 29.3135 33.3396 33.5508 31.8142C34.3983 31.4752 34.2288 30.4582 33.5508 30.2887C31.0085 29.4413 27.7881 27.5769 26.4322 23.6786C26.0932 23.0006 25.0763 23.0006 24.7373 23.6786Z" fill="white"/>
<path fill-rule="evenodd" clip-rule="evenodd" d="M14.2288 40.7972C13.3814 42.8311 11.6865 43.8481 10.3305 44.3566C9.99155 44.5261 9.99155 45.0345 10.3305 45.204C12.5339 46.0515 13.7204 47.7464 14.2288 49.2718C14.3983 49.6108 14.9068 49.6108 15.0763 49.2718C15.5848 47.9159 16.6017 46.0515 18.9746 45.204C19.3136 45.0345 19.3136 44.5261 18.9746 44.3566C17.6187 43.8481 15.9238 42.8311 15.0763 40.7972C14.9068 40.4583 14.3983 40.4583 14.2288 40.7972Z" fill="white"/>
<path fill-rule="evenodd" clip-rule="evenodd" d="M82.5338 37.5769C81.5168 40.4583 79.144 41.8142 77.2795 42.3227C76.7711 42.4921 76.7711 43.3396 77.2795 43.5091C80.3304 44.526 81.8558 47.0684 82.5338 48.9328C82.7033 49.4413 83.5507 49.4413 83.7202 48.9328C84.3982 47.0684 85.7541 44.6955 88.9745 43.5091C89.4829 43.3396 89.4829 42.4921 88.9745 42.3227C87.1101 41.6447 84.9067 40.2888 83.7202 37.5769C83.3812 36.8989 82.7033 36.8989 82.5338 37.5769Z" fill="white"/>
</svg>
