<svg width="243" height="269" viewBox="0 0 243 269" fill="none" xmlns="http://www.w3.org/2000/svg">
  <path d="M195.363 105.746L223.86 84.3909C222.267 81.073 220.901 77.6289 219.931 73.9234C215.841 58.294 200.896 46.1645 184.75 45.3688C173.263 44.8021 162.174 49.3885 151.91 54.5679C146.562 57.2663 140.864 60.2407 134.917 59.4978C129.654 58.8431 122.631 53.1644 117.736 51.1208C107.264 46.7488 50.6638 32.8283 12.2529 92.3539C1.3484 109.243 -0.441092 129.473 1.18385 145.32C3.70501 169.937 16.2344 192.396 35.4193 208.046C44.0818 215.114 52.7618 220.152 58.8943 221.071C74.4532 223.403 83.001 228.914 96.9703 236.14C119.781 247.937 140.018 268.018 165.682 268.967C187.75 269.783 208.151 255.404 220.554 237.147C227.991 226.204 233.075 213.989 237.177 201.366L195.363 105.746Z" fill="#B7EBF8"/>
  <path opacity="0.31" d="M139.262 262.31C189.614 262.31 230.432 257.859 230.432 252.368C230.432 246.877 189.614 242.426 139.262 242.426C88.9101 242.426 48.0918 246.877 48.0918 252.368C48.0918 257.859 88.9101 262.31 139.262 262.31Z" fill="#8C8C8C"/>
  <g style="mix-blend-mode:multiply" opacity="0.1">
  <path d="M153.336 46.9961C152.336 47.5168 151.964 48.7608 152.514 49.7452L237.179 201.367L195.718 106.559C195.492 106.041 195.495 105.452 195.726 104.937L240.304 5.7456C241.082 4.01542 239.239 2.27585 237.557 3.15176L153.336 46.9961Z" fill="#2C2A50"/>
  </g>
  <path d="M242.103 5.14356C242.315 3.39522 240.327 2.24591 238.918 3.30209L173.713 52.1676C172.97 52.7243 172.708 53.7189 173.08 54.5694L219.475 160.657C220.291 162.522 223.047 162.118 223.293 160.096L242.103 5.14356Z" fill="white"/>
  <path d="M184.011 170.657C197.728 161.002 209.569 137.284 209.569 137.284L203.593 122.104C203.593 122.104 189.283 138.511 179.624 143.344C178.604 143.855 177.435 144.345 176.359 143.969C179.025 154.246 181.346 160.377 184.011 170.657Z" fill="#94C93F"/>
  <path d="M195.115 159.872C194.019 151.674 191.53 144.724 188.613 136.981C185.751 139.101 182.809 141.744 179.624 143.341C178.604 143.852 177.435 144.343 176.359 143.967C179.025 154.246 181.346 160.377 184.011 170.657C187.854 167.95 192.362 163.718 195.115 159.872Z" fill="#7FAB40"/>
  <path d="M87.0752 204.282C82.9027 210.892 79.5882 218.033 79.2708 225.452C78.9535 232.872 81.6744 239.757 88.4974 244.714C87.613 245.692 86.6874 246.705 85.3798 247.295C83.5286 248.132 81.8684 249.244 80.5049 250.56C79.7498 251.288 79.165 252.53 80.1406 253.058C80.4697 253.238 80.8869 253.261 81.2836 253.276C88.6532 253.575 103.527 252.181 102.928 250.234C100.466 242.203 104.879 228.195 114.182 223.996C117.344 222.569 113.38 218.746 112.886 215.675C112.393 212.603 110.392 209.705 107.418 207.759C102.396 204.464 93.5162 203.877 87.0752 204.282Z" fill="#94C93F"/>
  <path d="M151.111 221.444C159.815 219.195 167.011 224.915 168.698 226.979C174.19 233.706 178.386 241.49 180.983 249.776C182.585 249.776 184.459 249.782 186.061 249.782H202.848C201.302 245.639 198.429 243.695 194.753 241.234C194.832 225.637 193.081 204.426 184.412 191.457" fill="#94C93F"/>
  <path d="M71.7499 122.198C66.6753 117.456 60.9424 113.295 54.4514 110.823C47.9605 108.351 40.6468 107.658 34.0295 109.772C33.5858 109.913 33.1244 110.083 32.8277 110.441C32.2429 111.152 32.572 112.215 32.9599 113.049C37.3381 122.453 46.0446 129.242 55.4211 133.693C60.6221 136.162 66.6694 138.027 72.0614 136.007" fill="black"/>
  <path d="M67.8887 134.128C60.9922 133.288 53.9048 133.305 47.2052 135.132C40.5056 136.958 34.188 140.708 30.0918 146.313C29.8186 146.689 29.5424 147.097 29.5159 147.561C29.463 148.48 30.3534 149.143 31.1614 149.59C40.247 154.608 51.2837 154.96 61.4829 153.031C67.1423 151.959 73.1279 149.904 76.2896 145.094" fill="black"/>
  <path d="M184.065 161.755C184.065 161.755 175.323 95.4464 171.527 81.0619C170.102 75.6681 165.521 72.3884 162.518 69.8515C158.257 66.2517 147.896 66.516 142.325 66.8037C117.357 68.0957 97.2144 70.3888 80.821 76.7075C65.9967 82.4243 58.8328 92.011 62.9114 115.395C63.1082 116.528 67.892 179.856 80.3303 206.435C83.3892 212.971 84.8172 224.566 104.851 224.428C113.061 224.372 166.89 222.02 181.259 215C194.761 208.402 186.14 168.021 184.065 161.755Z" fill="#94C93F"/>
  <path d="M126.341 188.609C126.341 188.609 113.285 154.422 106.835 141.829C100.383 129.236 84.0274 136.432 84.0274 136.432C84.0274 136.432 81.7765 129.236 81.0272 128.637L65.2832 138.144C67.8396 159.297 72.6116 189.942 80.3308 206.431C81.1213 208.12 81.803 210.146 82.7256 212.222C80.7804 216.488 79.4669 220.919 79.273 225.452C79.2642 225.634 79.2612 225.819 79.2554 226.001C88.2205 222.322 106.098 214.714 115.839 208.701C129.194 200.453 126.341 188.609 126.341 188.609Z" fill="#7FAB40"/>
  <path d="M132.193 72.7435C127.836 73.1046 124.665 68.9029 122.141 65.3354C117.475 58.7407 111.983 52.7303 105.804 47.5244C102.592 44.8172 98.4752 42.1864 94.4613 43.4284C90.706 44.5911 88.6726 48.8516 88.6373 52.7802C88.6021 56.7088 90.0772 60.4672 91.1703 64.2431C92.2633 68.0162 92.9686 72.1709 91.4465 75.7942" fill="#94C93F"/>
  <path d="M78.78 41.7255C83.6323 41.7255 87.5659 37.7949 87.5659 32.9462C87.5659 28.0976 83.6323 24.167 78.78 24.167C73.9277 24.167 69.9941 28.0976 69.9941 32.9462C69.9941 37.7949 73.9277 41.7255 78.78 41.7255Z" fill="#94C93F"/>
  <path d="M105.445 72.3441C103.808 69.5753 102.172 66.8094 100.532 64.0406C98.4693 60.5553 96.4036 57.0612 94.7081 53.3821C93.6444 51.0743 92.7159 48.6343 92.6571 46.0945C92.6424 45.4661 92.6865 44.8407 92.7805 44.2212C90.1036 45.9594 88.6697 49.4858 88.6373 52.7802C88.6021 56.7089 90.0772 60.4672 91.1703 64.2432C92.1899 67.7578 92.8657 71.6013 91.7256 75.0396C96.3301 74.4611 100.829 72.9549 105.445 72.3441Z" fill="#7FAB40"/>
  <path d="M80.819 76.707C65.9947 82.4237 58.8309 92.0104 62.9094 115.394C62.9124 115.409 62.9153 115.438 62.9212 115.474C71.5954 112.414 83.5459 107.026 83.5459 107.026C83.5459 107.026 81.9562 93.1673 84.7712 83.4573C86.0259 79.1264 91.6207 75.0686 97.4328 71.9004C91.4208 73.1894 85.8584 74.7632 80.819 76.707Z" fill="#7FAB40"/>
  <path d="M176.604 111.349C176.604 111.349 93.8146 86.3263 69.9282 117.171C67.3513 120.498 65.4736 124.236 64.166 128.258C66.2993 148.421 71.2946 187.126 80.3332 206.435C80.3743 206.523 80.4154 206.611 80.4536 206.702C74.2712 170.369 67.9507 146.742 70.4072 143.159C86.3275 119.922 176.604 111.349 176.604 111.349Z" fill="#7FAB40"/>
  <path d="M63.9348 130.519C63.9348 130.519 115.295 107.129 177.208 112.453C177.208 112.453 178.53 94.7179 172.633 86.1735C172.633 86.1735 98.0057 79.661 62.2394 106.066C62.2394 106.066 58.1168 117.456 63.9348 130.519Z" fill="black"/>
  <path d="M112.776 146.073C116.626 146.223 120.267 147.744 123.898 149.033C127.53 150.322 131.421 151.405 135.197 150.648C142.311 149.218 146.936 141.769 153.979 140.027C155.58 139.631 157.296 139.558 158.86 140.086C162.28 141.237 164.211 145.016 164.449 148.613C164.739 153.029 162.997 157.416 160.288 160.916C157.578 164.416 153.955 167.108 150.153 169.381C142.916 173.706 134.662 176.692 126.231 176.522C117.801 176.351 109.212 172.696 104.293 165.851C98.1491 157.298 100.517 145.6 112.776 146.073Z" fill="black"/>
  <path d="M118.446 156.541C126.182 155.842 133.999 156.946 141.512 158.916C146.56 160.24 151.744 162.114 155.331 165.84C153.695 167.137 151.946 168.309 150.154 169.381C142.917 173.706 134.663 176.692 126.232 176.522C117.802 176.351 109.213 172.696 104.294 165.851C103.263 164.418 102.478 162.895 101.932 161.356C106.992 158.617 112.701 157.057 118.446 156.541Z" fill="#F48A8A"/>
  <path d="M118.443 156.54C119.656 156.431 120.87 156.37 122.086 156.346C121.308 159.077 121.281 162.063 122.001 164.814C123.206 169.418 126.226 173.373 129.941 176.389C128.709 176.494 127.472 176.544 126.232 176.521C117.802 176.351 109.213 172.695 104.294 165.851C103.263 164.418 102.478 162.894 101.932 161.355C106.989 158.616 112.698 157.057 118.443 156.54Z" fill="#E05A5A"/>
  <path d="M110.364 166.377C113.685 166.104 117.082 167.956 118.651 170.893C120.023 169.011 122.453 167.959 124.765 168.247C127.078 168.538 129.173 170.156 130.04 172.317C130.322 169.809 132.373 167.607 134.856 167.143C137.336 166.679 140.048 167.995 141.218 170.229C141.085 167.815 142.352 165.305 144.512 164.213C146.671 163.121 149.622 163.708 150.997 165.698C150.277 163.223 152.013 160.319 154.537 159.782C156.409 159.383 158.41 160.349 159.468 161.917C156.868 164.932 153.594 167.328 150.165 169.378C142.928 173.703 134.674 176.689 126.243 176.518C118.748 176.366 111.134 173.456 106.08 168.003C107.329 167.093 108.816 166.503 110.364 166.377Z" fill="white"/>
  <path d="M126.236 176.227C118.74 176.075 111.126 173.459 106.072 168.006C107.33 167.096 108.817 166.506 110.365 166.379C111.123 166.318 111.884 166.371 112.628 166.517C114.391 167.974 116.274 169.263 118.299 170.302C118.425 170.496 118.543 170.693 118.652 170.895C118.728 170.793 118.819 170.699 118.901 170.602C119.313 170.801 119.73 170.992 120.153 171.171C126.929 174.011 134.772 173.758 141.703 171.315C147.933 169.122 153.463 165.264 158.206 160.651C158.696 161.003 159.131 161.426 159.463 161.922C156.863 164.938 153.589 167.334 150.16 169.383C142.923 173.705 134.666 176.398 126.236 176.227Z" fill="#E5E5E5"/>
  <path d="M151.959 130.628C153.131 130.628 154.081 129.679 154.081 128.508C154.081 127.337 153.131 126.388 151.959 126.388C150.788 126.388 149.838 127.337 149.838 128.508C149.838 129.679 150.788 130.628 151.959 130.628Z" fill="black"/>
  <path d="M105.428 137.331C106.6 137.331 107.55 136.382 107.55 135.211C107.55 134.04 106.6 133.091 105.428 133.091C104.256 133.091 103.307 134.04 103.307 135.211C103.307 136.382 104.256 137.331 105.428 137.331Z" fill="black"/>
  <path d="M32.1041 147.76L46.5876 185.416L91.8098 168.049L77.3263 130.395C72.6219 118.163 58.8819 112.055 46.6405 116.756L45.7531 117.097C33.5116 121.798 27.3997 135.527 32.1041 147.76ZM74.7993 150.94L46.8697 161.665L40.267 144.495C37.3022 136.787 41.1515 128.14 48.8648 125.177C56.5782 122.215 65.2318 126.061 68.1967 133.769L74.7993 150.94Z" fill="#B7B4A5"/>
  <path d="M109.715 206.819L59.3389 226.165C50.9379 229.392 41.5086 225.202 38.2793 216.808L24.6715 181.417C21.4421 173.023 25.6353 163.601 34.0362 160.374L84.4124 141.027C92.8133 137.8 102.243 141.99 105.472 150.385L119.083 185.775C122.312 194.169 118.119 203.592 109.715 206.819Z" fill="#FFE739"/>
  <path d="M106.61 153.373L25.8125 184.399L36.887 213.195L117.685 182.169L106.61 153.373Z" fill="#FFB83B"/>
  <path d="M75.8008 174.788C74.2963 170.874 69.8975 168.918 65.9806 170.425C62.0637 171.928 60.1067 176.324 61.6141 180.238C62.622 182.86 64.9316 184.601 67.5203 185.012L71.0053 194.076C71.7575 196.034 73.9554 197.009 75.9154 196.257C77.8753 195.506 78.8508 193.31 78.0986 191.351L74.6136 182.287C76.2621 180.246 76.8086 177.41 75.8008 174.788Z" fill="black"/>
  <path d="M33.6792 139.286C33.6792 139.286 32.9064 125.092 47.1989 119.593" stroke="#E5E1CC" stroke-width="7.9136" stroke-miterlimit="10" stroke-linecap="round"/>
  <path d="M26.8056 161.181C25.8242 164.138 26.3237 167.544 28.1103 170.096C29.0917 171.499 30.652 172.715 32.3563 172.539C32.4885 172.524 32.6296 172.497 32.7177 172.398C32.8088 172.295 32.8176 172.142 32.8176 172.004C32.8235 169.881 32.2799 167.761 31.2603 165.903C32.659 166.813 34.472 167.007 36.0558 166.505C36.9696 166.214 37.378 165.136 36.8961 164.308C36.2615 163.216 35.4857 162.209 34.5895 161.316C35.521 161.378 36.4818 161.402 37.3545 161.076C41.5447 159.505 36.9637 155.015 34.3103 154.78C30.89 154.469 27.7577 158.313 26.8056 161.181Z" fill="#94C93F"/>
  <path d="M198.361 131.171C198.784 126.344 200.362 123.625 204.367 120.888C205.807 123.449 206.874 124.911 205.381 127.442C207.038 128.261 207.567 130.534 206.9 132.257C206.233 133.981 204.67 135.202 203.028 136.051" fill="#94C93F"/>
  <path d="M95.6135 162.517C94.7408 164.952 93.1717 167.8 90.3978 169.183C89.6397 169.561 89.6867 170.654 90.4742 170.962C92.5663 171.778 95.0758 173.249 96.3687 175.816C96.7477 176.564 97.8496 176.491 98.1405 175.704C98.9633 173.481 100.509 170.894 103.397 169.617C104.188 169.268 104.155 168.14 103.35 167.823C101.161 166.963 98.6636 165.371 97.4206 162.459C97.0768 161.648 95.9103 161.687 95.6135 162.517Z" fill="white"/>
  <path opacity="0.65" d="M73.7933 203.938C73.2262 205.521 72.2066 207.371 70.4024 208.272C69.9087 208.519 69.9381 209.226 70.4523 209.429C71.8128 209.96 73.4436 210.915 74.284 212.585C74.5309 213.073 75.2478 213.023 75.4359 212.512C75.9707 211.067 76.9756 209.385 78.8533 208.554C79.3675 208.325 79.3469 207.594 78.821 207.388C77.3988 206.828 75.7738 205.794 74.9657 203.9C74.7424 203.372 73.9843 203.398 73.7933 203.938Z" fill="white"/>
  <path opacity="0.65" d="M38.9808 141.565C38.4137 143.148 37.3941 144.998 35.5899 145.899C35.0962 146.146 35.1256 146.853 35.6398 147.056C37.0003 147.587 38.6312 148.542 39.4715 150.212C39.7184 150.7 40.4353 150.65 40.6234 150.139C41.1582 148.694 42.1631 147.012 44.0408 146.181C44.555 145.952 44.5344 145.221 44.0084 145.015C42.5863 144.454 40.9613 143.421 40.1532 141.527C39.9299 141.001 39.1748 141.025 38.9808 141.565Z" fill="white"/>
</svg>
