<svg width="227" height="36" viewBox="0 0 227 36" fill="none" xmlns="http://www.w3.org/2000/svg">
<path d="M170.553 17.2416C171.472 17.2416 172.217 16.4973 172.217 15.5793C172.217 14.6612 171.472 13.9169 170.553 13.9169C169.634 13.9169 168.889 14.6612 168.889 15.5793C168.889 16.4973 169.634 17.2416 170.553 17.2416Z" fill="#7174A0"/>
<path d="M185.088 34.5012C182.834 34.5012 180.633 33.2931 179.686 31.3127C177.699 27.156 179.713 21.658 182.706 19.8778C184.778 18.6446 187.418 18.694 189.43 20.0019C191.624 21.4273 192.671 23.9926 192.303 27.0397C191.992 29.6177 190.14 32.9614 187.319 34.0808C186.599 34.3665 185.841 34.5012 185.088 34.5012ZM185.972 20.8984C185.181 20.8984 184.387 21.106 183.687 21.5226C181.679 22.7176 179.799 27.1051 181.416 30.4877C182.245 32.2223 184.672 33.0706 186.611 32.3013C188.667 31.4855 190.152 28.869 190.4 26.8108C190.677 24.5159 189.943 22.6192 188.385 21.6068C187.659 21.1352 186.817 20.8984 185.972 20.8984ZM183.196 20.7002H183.204H183.196Z" fill="#7174A0"/>
<path d="M194.844 34.3811C193.869 34.3811 192.935 34.0748 192.222 33.4756C190.542 32.0634 190.497 29.6764 190.61 28.0035C190.797 25.2175 191.323 22.4614 192.174 19.8115C192.336 19.3074 192.877 19.0321 193.38 19.1922C193.884 19.3538 194.161 19.8931 194 20.3965C193.196 22.8983 192.699 25.501 192.522 28.1322C192.39 30.1021 192.695 31.3707 193.456 32.0103C194.118 32.5668 195.239 32.6192 196.181 32.1382C197.25 31.5936 198.632 30.3123 199.2 29.3402C199.467 28.8839 200.055 28.7309 200.511 28.9961C200.968 29.2628 201.122 29.8492 200.855 30.3059C200.096 31.6045 198.462 33.1256 197.053 33.8437C196.347 34.2038 195.584 34.3811 194.844 34.3811Z" fill="#7174A0"/>
<path d="M173.103 34.4421C171.927 34.4421 170.876 34.1062 170.032 33.4446C168.603 32.3252 167.875 30.3422 168.032 28.0038L168.046 27.7959C168.221 25.1883 168.372 22.936 168.889 19.9413C168.979 19.4207 169.474 19.0717 169.997 19.1604C170.518 19.2501 170.868 19.7457 170.778 20.2667C170.278 23.1634 170.13 25.3697 169.959 27.9242L169.944 28.1325C169.83 29.8286 170.293 31.2158 171.215 31.9381C172.069 32.6072 173.301 32.7134 174.776 32.2451C176.292 31.7641 178.086 30.396 178.947 29.0623C179.234 28.618 179.828 28.4904 180.272 28.7769C180.716 29.0634 180.844 29.6562 180.557 30.1005C179.448 31.8184 177.309 33.4509 175.355 34.0703C174.572 34.3186 173.814 34.4421 173.103 34.4421Z" fill="#7174A0"/>
<path d="M199.963 35.2133C199.955 35.2133 199.946 35.2133 199.937 35.2129C199.408 35.1991 198.991 34.7592 199.004 34.2308L199.396 19.3025C199.41 18.774 199.838 18.342 200.379 18.3705C200.908 18.3843 201.326 18.8241 201.312 19.3526L200.921 34.2809C200.907 34.8011 200.481 35.2133 199.963 35.2133Z" fill="#7174A0"/>
<path d="M210.566 35.0831C210.563 35.0831 210.56 35.0831 210.557 35.0831C210.027 35.0779 209.602 34.6451 209.608 34.1163C209.62 32.8061 209.647 31.5958 209.671 30.4809C209.844 22.6196 209.742 20.7544 206.002 20.5113C203.372 20.331 201.656 22.764 201.139 24.4339C200.983 24.9392 200.445 25.2238 199.941 25.0664C199.435 24.9104 199.152 24.3744 199.308 23.8692C200.168 21.0865 202.798 18.3899 206.126 18.6001C211.841 18.9719 211.751 23.0748 211.588 30.5228C211.563 31.6306 211.537 32.8331 211.524 34.135C211.519 34.6605 211.091 35.0831 210.566 35.0831Z" fill="#7174A0"/>
<path d="M222.911 35.4582C222.22 35.4582 221.543 35.2611 220.984 34.8636C219.638 33.9053 219.491 32.284 219.513 30.9787L219.527 30.212C219.65 23.4974 219.553 20.7626 215.884 20.5109C214.113 20.389 212.217 21.9411 211.54 23.4645C211.325 23.9488 210.757 24.1661 210.275 23.9507C209.791 23.736 209.573 23.1705 209.788 22.6873C210.746 20.5337 213.346 18.4187 216.015 18.6005C221.649 18.9868 221.558 23.9559 221.444 30.2468L221.43 31.0116C221.408 32.2706 221.608 32.9561 222.096 33.3036C222.598 33.6604 223.415 33.6095 223.997 33.1858C224.582 32.7609 224.99 31.977 225.089 31.0891C225.148 30.5636 225.622 30.1839 226.148 30.2442C226.674 30.3029 227.053 30.7768 226.994 31.3022C226.833 32.7366 226.152 33.9873 225.125 34.7338C224.463 35.2151 223.678 35.4582 222.911 35.4582Z" fill="#7174A0"/>
<path d="M165.397 33.6679C165.393 33.6679 165.39 33.6679 165.386 33.6679L151.804 33.5243C151.543 33.5213 151.295 33.4128 151.116 33.2232C150.937 33.0339 150.844 32.78 150.856 32.52C151.216 25.1954 151.415 19.6814 151.667 12.7005L151.91 6.01243C151.93 5.48433 152.36 5.07703 152.904 5.09124C153.433 5.11069 153.846 5.55502 153.826 6.08349L153.582 12.7697C153.342 19.4383 153.15 24.7698 152.819 31.6198L165.407 31.7529C165.936 31.7586 166.361 32.1917 166.355 32.7205C166.349 33.246 165.921 33.6679 165.397 33.6679Z" fill="#7174A0"/>
<path d="M125.036 35.1632C124.836 35.1632 124.636 35.1602 124.434 35.1549C123.129 35.1201 121.436 34.9795 119.902 34.1952C115.684 32.0376 114.974 26.3257 116.735 22.271C117.684 20.0864 119.146 18.2575 120.776 16.5819C120.483 15.9835 120.209 15.3795 119.956 14.771C118.87 12.1593 118.416 9.99039 118.529 7.9453C118.676 5.25505 119.915 2.85689 121.844 1.53028C124.12 -0.0360767 127.329 0.132976 129.151 1.91327C131.075 3.79454 131.079 6.76717 130.229 8.87883C129.354 11.0556 127.644 12.7577 126.11 14.1823C125.768 14.5002 125.421 14.8177 125.074 15.1357C124.423 15.7322 123.766 16.334 123.126 16.9507C125.636 21.5432 129.453 25.8252 134.526 29.7411C136.123 27.9698 136.888 25.6577 136.477 23.5696C136.201 22.1682 135.262 20.8464 133.965 20.0337C132.852 19.3358 131.63 19.1114 130.524 19.4001C130.01 19.5344 129.488 19.2281 129.354 18.7168C129.22 18.2052 129.526 17.6819 130.038 17.548C131.662 17.1228 133.418 17.4302 134.984 18.4112C136.72 19.4996 137.982 21.29 138.358 23.2001C138.873 25.8208 137.974 28.6905 136.065 30.8897C136.987 31.5555 137.946 32.2103 138.943 32.8536C139.387 33.1405 139.515 33.7333 139.228 34.1773C138.941 34.6216 138.347 34.7495 137.903 34.4619C136.776 33.7348 135.695 32.9928 134.659 32.2362C134.524 32.3439 134.385 32.449 134.243 32.5507C131.858 34.2644 128.685 35.1628 125.036 35.1632ZM121.722 18.369C120.401 19.7842 119.244 21.3053 118.494 23.0333C117.071 26.3088 117.648 30.8908 120.776 32.4905C121.966 33.0994 123.383 33.2112 124.485 33.2407C126.899 33.304 130.334 32.973 133.069 31.0352C128.106 27.156 124.309 22.9181 121.722 18.369ZM125.349 2.37105C124.512 2.37105 123.648 2.61416 122.931 3.10748C121.488 4.1001 120.558 5.94771 120.442 8.05003C120.347 9.79778 120.755 11.7 121.726 14.0364C121.883 14.4142 122.049 14.7901 122.223 15.1641C122.739 14.6771 123.26 14.1991 123.779 13.7241C124.123 13.4092 124.466 13.0947 124.805 12.7798C126.251 11.4374 127.723 9.97506 128.451 8.16447C129.043 6.69349 129.095 4.53807 127.81 3.28214C127.192 2.67774 126.288 2.37105 125.349 2.37105Z" fill="#7174A0"/>
<path d="M64.4551 32.0237C62.2009 32.0237 59.9996 30.8156 59.0528 28.8353C57.0656 24.6785 59.0801 19.1809 62.0725 17.4006C64.1436 16.1675 66.7833 16.2158 68.7967 17.5241C70.9902 18.9498 72.0377 21.5151 71.6701 24.5626C71.3589 27.1402 69.5061 30.4839 66.6856 31.6033C65.966 31.8891 65.2075 32.0237 64.4551 32.0237ZM65.3382 18.4209C64.5471 18.4209 63.7542 18.6285 63.0534 19.0455C61.0456 20.2405 59.1658 24.628 60.7824 28.0102C61.6117 29.7456 64.0399 30.592 65.978 29.8238C67.8192 29.093 69.4837 26.6813 69.7667 24.3337C70.0438 22.0387 69.3092 20.1418 67.7514 19.1293C67.0259 18.6581 66.1832 18.4209 65.3382 18.4209ZM62.5629 18.2231H62.5704H62.5629Z" fill="#7174A0"/>
<path d="M74.2102 31.904C73.2361 31.904 72.3016 31.5977 71.5888 30.9985C69.9083 29.5862 69.8637 27.1993 69.9764 25.5264C70.1636 22.74 70.69 19.9839 71.5409 17.3344C71.703 16.8306 72.2432 16.5535 72.7464 16.7151C73.2503 16.8766 73.5281 17.416 73.3664 17.9194C72.5626 20.4208 72.0658 23.0235 71.8887 25.655C71.7562 27.6249 72.0617 28.8936 72.8228 29.5331C73.4847 30.0893 74.6056 30.1417 75.5479 29.6611C76.6163 29.1161 77.9985 27.8348 78.5665 26.8631C78.8338 26.4064 79.4219 26.2531 79.8775 26.519C80.3347 26.7857 80.4889 27.3721 80.222 27.8288C79.4627 29.127 77.8282 30.6481 76.4198 31.3665C75.7137 31.7267 74.9504 31.904 74.2102 31.904Z" fill="#7174A0"/>
<path d="M79.3294 32.7362C79.3212 32.7362 79.3126 32.7362 79.3039 32.7358C78.775 32.722 78.3571 32.2821 78.371 31.7536L78.7626 16.8254C78.7765 16.2969 79.1928 15.8818 79.7457 15.8934C80.2747 15.9072 80.6925 16.347 80.6787 16.8755L80.2871 31.8038C80.2736 32.324 79.8472 32.7362 79.3294 32.7362Z" fill="#7174A0"/>
<path d="M89.9329 32.606C89.9295 32.606 89.9265 32.606 89.9232 32.606C89.3938 32.6008 88.9689 32.1681 88.9741 31.6392C88.9868 30.3287 89.0134 29.1184 89.0378 28.0035C89.21 20.1421 89.1085 18.2773 85.3681 18.0342C82.7355 17.8588 81.022 20.2865 80.5057 21.9568C80.35 22.4625 79.8112 22.7467 79.3073 22.5893C78.8015 22.4333 78.5181 21.8974 78.6742 21.3921C79.5342 18.6094 82.1661 15.9072 85.4924 16.123C91.2073 16.4948 91.1174 20.5977 90.9542 28.0457C90.9299 29.1532 90.9037 30.356 90.8909 31.6579C90.8857 32.1834 90.4578 32.606 89.9329 32.606Z" fill="#7174A0"/>
<path d="M102.277 32.9811C101.586 32.9811 100.91 32.784 100.35 32.3861C99.0045 31.4282 98.8573 29.8069 98.8798 28.5016L98.8936 27.7349C99.0161 21.0203 98.9195 18.2855 95.2506 18.0338C93.4824 17.9081 91.5839 19.4636 90.9063 20.9874C90.6914 21.4713 90.1239 21.6897 89.6417 21.4736C89.1576 21.2589 88.9397 20.6934 89.155 20.2102C90.1126 18.0566 92.7194 15.945 95.3816 16.1234C101.015 16.5097 100.925 21.4788 100.81 27.7697L100.797 28.5345C100.775 29.7934 100.974 30.479 101.462 30.8264C101.964 31.1833 102.781 31.132 103.364 30.7083C103.948 30.2834 104.356 29.4998 104.455 28.6123C104.514 28.0868 104.986 27.7076 105.514 27.767C106.04 27.8258 106.419 28.2993 106.36 28.8247C106.2 30.2583 105.519 31.5094 104.492 32.2563C103.83 32.738 103.044 32.9811 102.277 32.9811Z" fill="#7174A0"/>
<path d="M47.4295 32.5137C47.0761 32.5137 46.7245 32.4875 46.3775 32.434C44.3802 32.1273 42.5162 30.9207 41.2627 29.124C40.0183 27.3396 39.5339 25.1917 39.9341 23.2318C40.0397 22.7135 40.5492 22.3783 41.0643 22.4849C41.5832 22.5904 41.9179 23.0961 41.812 23.6141C41.5162 25.0634 41.8895 26.6727 42.8355 28.0293C43.7902 29.3982 45.1873 30.3137 46.6688 30.5415C48.1363 30.7659 49.7368 30.3261 51.0591 29.3323C52.3934 28.3296 53.269 26.9001 53.4615 25.4108C53.7157 23.445 52.9692 21.2414 51.4136 19.3653C49.8918 17.5301 47.7777 16.1593 45.9106 15.0605L45.6621 14.9146C44.5326 14.2526 43.3645 13.5682 42.4447 12.5172C40.6667 10.4859 40.3279 7.33378 41.6386 5.02165C42.9838 2.64706 45.9649 1.36346 48.5732 2.03555C51.2519 2.7256 53.2132 5.39828 53.0392 8.12033C53.0051 8.64768 52.5476 9.03852 52.0216 9.01496C51.4934 8.9813 51.0924 8.52613 51.1261 7.9984C51.2418 6.19343 49.8817 4.3503 48.0948 3.8899C46.3269 3.43323 44.2244 4.34619 43.3068 5.96528C42.384 7.59297 42.6285 9.81796 43.8875 11.2568C44.6026 12.0736 45.5883 12.6511 46.6321 13.263L46.8833 13.4103C48.8937 14.5937 51.1793 16.0811 52.8894 18.1438C54.783 20.4275 55.6845 23.1656 55.3625 25.6562C55.1042 27.6538 53.9556 29.5515 52.2114 30.8624C50.7832 31.9358 49.0872 32.5137 47.4295 32.5137Z" fill="#7174A0"/>
<path d="M26.4071 20.3039H0.958406C0.429036 20.3039 0 19.8753 0 19.3464C0 18.8176 0.429036 18.389 0.958406 18.389H26.4071C26.9365 18.389 27.3655 18.8176 27.3655 19.3464C27.3655 19.8753 26.9365 20.3039 26.4071 20.3039Z" fill="#7174A0"/>
</svg>
