<svg width="25" height="25" viewBox="0 0 25 25" fill="none" xmlns="http://www.w3.org/2000/svg">
<path d="M22.1406 10.2472C18.4565 10.2472 15.4687 7.25933 15.4687 3.57524C15.4687 2.12482 14.3083 0.964478 12.8579 0.964478C11.4075 0.964478 10.2471 2.12482 10.2471 3.57524C10.2471 7.25933 7.25926 10.2472 3.57518 10.2472C2.12476 10.2472 0.964417 11.4075 0.964417 12.858C0.964417 14.3084 2.12476 15.4687 3.57518 15.4687C7.25926 15.4687 10.2471 18.4566 10.2471 22.1407C10.2471 23.5911 11.4075 24.7515 12.8579 24.7515C14.3083 24.7515 15.4687 23.5911 15.4687 22.1407C15.4687 18.4566 18.4565 15.4687 22.1406 15.4687C23.5911 15.4687 24.7514 14.3084 24.7514 12.858C24.7514 11.4075 23.5911 10.2472 22.1406 10.2472Z" fill="#8047FF"/>
</svg>
