<svg width="61" height="23" viewBox="0 0 61 23" fill="none" xmlns="http://www.w3.org/2000/svg">
<path d="M6.07016 22.4336V15.2002H11.3014C16.1452 15.2002 18.7931 11.9388 18.7931 8.06377C18.7931 4.15648 16.1452 0.89502 11.3014 0.89502H0.515991V22.4336H6.07016ZM10.4618 10.3565H6.07016V5.73877H10.4618C11.9472 5.73877 13.142 6.57835 13.142 8.06377C13.142 9.5169 11.9472 10.3565 10.4618 10.3565Z" fill="#2C2A50"/>
<path d="M25.7329 22.4336V0.89502H20.76V22.4336H25.7329Z" fill="#2C2A50"/>
<path d="M44.4607 22.4336V6.83669H39.4878V16.9117C38.9066 17.6544 37.9378 18.4294 36.517 18.4294C34.9024 18.4294 33.9337 17.7836 33.9337 15.8784V6.83669H28.9607V17.945C28.9607 20.7867 30.5753 22.8211 34.0951 22.8211C36.743 22.8211 38.5191 21.6586 39.4878 20.5606V22.4336H44.4607Z" fill="#2C2A50"/>
<path d="M53.7004 22.8211C58.1566 22.8211 60.7722 20.6898 60.7722 17.719C60.7722 11.3252 51.7306 13.1013 51.7306 11.3898C51.7306 10.7763 52.5056 10.3242 53.6681 10.3242C55.541 10.3242 57.317 11.1315 58.2535 12.0356L60.1587 8.51585C58.4795 7.28877 56.2837 6.44919 53.6358 6.44919C49.341 6.44919 46.9514 8.83877 46.9514 11.5836C46.9514 17.9127 56.0254 15.9106 56.0254 17.8481C56.0254 18.5263 55.4118 18.9461 53.9264 18.9461C52.0858 18.9461 49.5993 17.8804 48.4368 16.8471L46.3702 20.3992C48.017 21.8846 50.891 22.8211 53.7004 22.8211Z" fill="#2C2A50"/>
</svg>
