<svg width="231" height="32" viewBox="0 0 231 32" fill="none" xmlns="http://www.w3.org/2000/svg">
<path d="M12.9473 25.2521C18.5323 25.2521 21.5504 21.9913 23.042 19.0427L17.9079 16.6144C17.1448 18.4529 15.1674 19.9793 12.9473 19.9793C9.16613 19.9793 6.49502 17.0653 6.49502 13.2842C6.49502 9.4683 9.16613 6.58905 12.9473 6.58905C15.1674 6.58905 17.1448 8.1154 17.9079 9.95395L23.042 7.49099C21.5504 4.47298 18.5323 1.31622 12.9473 1.31622C5.83591 1.31622 0.424316 6.13809 0.424316 13.2842C0.424316 20.3956 5.83591 25.2521 12.9473 25.2521Z" fill="#2C2A50"/>
<path d="M30.4211 24.8358V1.6978H25.0789V24.8358H30.4211Z" fill="#2C2A50"/>
<path d="M49.1174 24.8358V14.3595C49.1174 9.15609 45.3362 7.66443 41.3122 7.66443C38.7452 7.66443 35.8659 8.42761 33.7151 10.2662L35.6925 13.978C37.0454 12.8332 38.7105 12.1741 40.3756 12.1741C42.5263 12.1741 43.7752 13.1801 43.7752 14.6371V16.3022C42.7692 15.0533 40.7919 14.3249 38.5717 14.3249C36.0047 14.3249 32.8132 15.6778 32.8132 19.7365C32.8132 23.4829 36.0047 25.2521 38.5717 25.2521C40.7225 25.2521 42.7345 24.4196 43.7752 23.1707V24.8358H49.1174ZM40.7918 21.7485C39.4043 21.7485 38.1207 21.124 38.1207 19.8058C38.1207 18.4876 39.4043 17.8632 40.7918 17.8632C41.9713 17.8632 43.2201 18.2448 43.7752 19.0427V20.5343C43.2201 21.3322 41.9713 21.7485 40.7918 21.7485Z" fill="#2C2A50"/>
<path d="M59.0426 25.2521C63.8298 25.2521 66.6397 22.9626 66.6397 19.7711C66.6397 12.9026 56.9265 14.8105 56.9265 12.972C56.9265 12.3129 57.7591 11.8272 59.0079 11.8272C61.0199 11.8272 62.9279 12.6944 63.9339 13.6658L65.9806 9.88457C64.1767 8.56637 61.8178 7.66443 58.9732 7.66443C54.3595 7.66443 51.7925 10.2315 51.7925 13.1801C51.7925 19.9793 61.5403 17.8285 61.5403 19.9099C61.5403 20.6384 60.8812 21.0894 59.2854 21.0894C57.3081 21.0894 54.637 19.9446 53.3882 18.8345L51.168 22.6504C52.9372 24.2461 56.0246 25.2521 59.0426 25.2521Z" fill="#2C2A50"/>
<path d="M75.4407 25.2521C80.2279 25.2521 83.0378 22.9626 83.0378 19.7711C83.0378 12.9026 73.3247 14.8105 73.3247 12.972C73.3247 12.3129 74.1572 11.8272 75.406 11.8272C77.418 11.8272 79.326 12.6944 80.332 13.6658L82.3787 9.88457C80.5748 8.56637 78.2159 7.66443 75.3713 7.66443C70.7576 7.66443 68.1906 10.2315 68.1906 13.1801C68.1906 19.9793 77.9384 17.8285 77.9384 19.9099C77.9384 20.6384 77.2793 21.0894 75.6836 21.0894C73.7062 21.0894 71.0351 19.9446 69.7863 18.8345L67.5662 22.6504C69.3353 24.2461 72.4227 25.2521 75.4407 25.2521Z" fill="#2C2A50"/>
<path d="M95.2731 24.8358C102.523 24.8358 107.761 20.4302 107.761 13.2495C107.761 6.06871 102.523 1.6978 95.2384 1.6978H85.5253V24.8358H95.2731ZM95.2384 19.6324H91.492V6.90126H95.2731C99.5053 6.90126 101.656 9.67644 101.656 13.2495C101.656 16.6838 99.2971 19.6324 95.2384 19.6324Z" fill="#2C2A50"/>
<path d="M118.199 25.2521C123.958 25.2521 127.357 21.1587 127.357 16.4409C127.357 11.7231 123.958 7.66443 118.199 7.66443C112.51 7.66443 109.111 11.7231 109.111 16.4409C109.111 21.1587 112.51 25.2521 118.199 25.2521ZM118.199 20.5343C115.91 20.5343 114.592 18.6958 114.592 16.4409C114.592 14.2208 115.91 12.3822 118.199 12.3822C120.558 12.3822 121.877 14.2208 121.877 16.4409C121.877 18.6958 120.558 20.5343 118.199 20.5343Z" fill="#2C2A50"/>
<path d="M132.44 6.58905C134.14 6.58905 135.527 5.20146 135.527 3.50167C135.527 1.80187 134.14 0.448975 132.44 0.448975C130.74 0.448975 129.387 1.80187 129.387 3.50167C129.387 5.20146 130.74 6.58905 132.44 6.58905ZM128.624 31.635C133.099 31.635 135.111 28.7558 135.111 24.6971V8.08071H129.769V24.6971C129.769 26.5009 128.971 27.3335 127.722 27.3335C126.716 27.3335 126.23 27.1254 125.571 26.5703L124.218 30.4556C125.502 31.2881 126.334 31.635 128.624 31.635Z" fill="#2C2A50"/>
<path d="M146.592 25.2521C152.35 25.2521 155.75 21.1587 155.75 16.4409C155.75 11.7231 152.35 7.66443 146.592 7.66443C140.903 7.66443 137.503 11.7231 137.503 16.4409C137.503 21.1587 140.903 25.2521 146.592 25.2521ZM146.592 20.5343C144.302 20.5343 142.984 18.6958 142.984 16.4409C142.984 14.2208 144.302 12.3822 146.592 12.3822C148.951 12.3822 150.269 14.2208 150.269 16.4409C150.269 18.6958 148.951 20.5343 146.592 20.5343Z" fill="#2C2A50"/>
<path d="M171.869 24.8358V17.0653H177.489C182.692 17.0653 185.537 13.5616 185.537 9.39887C185.537 5.20141 182.692 1.69775 177.489 1.69775H165.902V24.8358H171.869ZM176.587 11.8618H171.869V6.90121H176.587C178.182 6.90121 179.466 7.80314 179.466 9.39887C179.466 10.9599 178.182 11.8618 176.587 11.8618Z" fill="#8047FF"/>
<path d="M192.992 24.8358V1.69775H187.65V24.8358H192.992Z" fill="#8047FF"/>
<path d="M213.11 24.8358V8.08066H207.768V18.9038C207.144 19.7017 206.103 20.5343 204.577 20.5343C202.842 20.5343 201.802 19.8405 201.802 17.7938V8.08066H196.459V20.0139C196.459 23.0666 198.194 25.2521 201.975 25.2521C204.82 25.2521 206.728 24.0032 207.768 22.8238V24.8358H213.11Z" fill="#8047FF"/>
<path d="M223.036 25.2521C227.823 25.2521 230.633 22.9625 230.633 19.7711C230.633 12.9025 220.92 14.8105 220.92 12.9719C220.92 12.3128 221.753 11.8271 223.002 11.8271C225.014 11.8271 226.921 12.6944 227.927 13.6657L229.974 9.88453C228.17 8.56632 225.811 7.66438 222.967 7.66438C218.353 7.66438 215.786 10.2314 215.786 13.18C215.786 19.9792 225.534 17.8285 225.534 19.9098C225.534 20.6383 224.875 21.0893 223.279 21.0893C221.302 21.0893 218.631 19.9445 217.382 18.8345L215.162 22.6503C216.931 24.2461 220.018 25.2521 223.036 25.2521Z" fill="#8047FF"/>
</svg>
